<svg width="90" height="90" viewBox="0 0 90 90" fill="none" xmlns="http://www.w3.org/2000/svg">
<path d="M59.4 60.847C59.4 55.2276 63.1509 52.2 68.5073 52.2C73.8637 52.2 77.4 55.2276 77.4 60.847C77.4 66.3588 73.8651 69.3851 68.5073 69.3851C63.1496 69.3851 59.4 66.3588 59.4 60.847Z" fill="#00BA96"/>
<path d="M34.1106 19.8001C28.9973 19.7902 23.9062 20.4679 18.9762 21.8147V21.8147C18.3249 21.9878 17.7492 22.3692 17.3382 22.8997C16.9271 23.4303 16.7037 24.0806 16.7025 24.7499V24.7499V33.9083C21.3988 32.0583 26.4139 31.1365 31.4662 31.1949C39.2112 31.1949 42.31 33.6366 42.31 39.4274V42.1406C38.5609 41.012 34.6525 40.4927 30.7362 40.6029C19.5275 40.6029 12.6 46.3012 12.6 55.6185C12.6 64.5736 18.5237 70.1814 28.4587 70.1814C34.0146 70.4051 39.4608 68.6029 43.77 65.1151L44.4981 68.7324H55.8V40.4236C55.8 26.0419 49.9675 19.8001 34.1106 19.8001ZM42.3044 56.6148C41.0481 57.8526 39.5538 58.8269 37.9104 59.4797C36.2669 60.1326 34.508 60.4507 32.7381 60.4149C28.8275 60.4149 25.995 58.8771 25.995 54.9864C25.995 51.0957 28.9113 49.2881 33.9244 49.2881C36.7643 49.3104 39.5864 49.7367 42.3044 50.5542V56.6148Z" fill="#183054"/>
</svg>
