<svg xmlns="http://www.w3.org/2000/svg" xmlns:xlink="http://www.w3.org/1999/xlink" width="500" height="512.126" viewBox="0 0 500 512.126"><defs><style>.a,.c,.h,.s,.v,.y,.z{fill:none;}.b{fill:#6680a9;}.c{stroke:#001029;}.c,.h,.s,.v,.y,.z{stroke-miterlimit:10;}.c,.h,.s,.v{stroke-width:2px;}.d{fill:#ededed;}.e{fill:#ff5e13;}.f{fill:#ffb13d;}.g{fill:#002b70;}.h,.s{stroke:#6680a9;}.h,.z{stroke-linecap:round;}.i{fill:#2f313b;}.j{fill:#f4f4f4;}.k{clip-path:url(#a);}.l{fill:#e65412;}.m{fill:#fe5d11;}.n{fill:#001029;}.o{fill:#ffd08b;}.p{fill:#202430;}.q{fill:#00296f;}.r{fill:#99aac6;}.t{fill:#cfe1f9;}.u{clip-path:url(#b);}.v{stroke:#202430;}.w{fill:#fff;}.x{fill:#ffe0b1;}.y,.z{stroke:#002b70;stroke-width:6px;}</style><clipPath id="a"><rect class="a" width="104.592" height="106.368" transform="translate(448.218 400.81)"/></clipPath><clipPath id="b"><path class="a" d="M476.547,218.929c-30.091-2.488-36.846-1.871-52.011,32.5-8.847,20.053-4.824,29.193.063,33.329,6.85,5.8,10.931,9.876,13.375,18.509,2.91,10.275.963,18.188-.822,32.245A10.463,10.463,0,0,0,439.075,343c12.991,17.815,49.445,22.546,73.788,10.732a6.379,6.379,0,0,0,3.177-8.154c-7.9-19.185-20.43-38.895-16.379-61.8C505.459,250.983,494.124,220.382,476.547,218.929Z"/></clipPath></defs><g transform="translate(-66.602 -42.261)"><rect class="b" width="328.341" height="184.761" transform="translate(148.91 288.571)"/><line class="c" x2="410.295" transform="translate(66.602 380.952)"/><path class="d" d="M0,0H26.6a0,0,0,0,1,0,0V20.373a8,8,0,0,1-8,8H8a8,8,0,0,1-8-8V0A0,0,0,0,1,0,0Z" transform="translate(271.166 260.37)"/><path class="e" d="M290.283,288.743H278.652a7.486,7.486,0,0,1-7.486-7.486V269.423l26.6-2.575v14.409A7.485,7.485,0,0,1,290.283,288.743Z"/><rect class="f" width="29.11" height="4.354" rx="2.177" transform="translate(269.913 258.193)"/><path class="d" d="M0,0H26.6a0,0,0,0,1,0,0V20.373a8,8,0,0,1-8,8H8a8,8,0,0,1-8-8V0A0,0,0,0,1,0,0Z" transform="translate(305.747 260.37)"/><path class="f" d="M324.864,288.743H313.233a7.486,7.486,0,0,1-7.486-7.486V277.8l26.6,1.363v2.1A7.486,7.486,0,0,1,324.864,288.743Z"/><rect class="g" width="29.11" height="4.354" rx="2.177" transform="translate(304.494 258.193)"/><path class="d" d="M0,0H26.6a0,0,0,0,1,0,0V20.373a8,8,0,0,1-8,8H8a8,8,0,0,1-8-8V0A0,0,0,0,1,0,0Z" transform="translate(340.329 229.82)"/><rect class="g" width="29.11" height="4.354" rx="2.177" transform="translate(339.075 227.643)"/><path class="d" d="M0,0H26.6a0,0,0,0,1,0,0V20.373a8,8,0,0,1-8,8H8a8,8,0,0,1-8-8V0A0,0,0,0,1,0,0Z" transform="translate(340.329 199.27)"/><path class="b" d="M0,0H26.6a0,0,0,0,1,0,0V15.342a8,8,0,0,1-8,8H8a8,8,0,0,1-8-8V0A0,0,0,0,1,0,0Z" transform="translate(340.329 204.301)"/><rect class="g" width="29.11" height="4.354" rx="2.177" transform="translate(339.075 197.093)"/><path class="d" d="M0,0H26.6a0,0,0,0,1,0,0V20.373a8,8,0,0,1-8,8H8a8,8,0,0,1-8-8V0A0,0,0,0,1,0,0Z" transform="translate(340.329 260.37)"/><rect class="f" width="29.11" height="4.354" rx="2.177" transform="translate(339.075 258.193)"/><rect class="g" width="33.688" height="5.615" rx="2.807" transform="translate(271.215 314.505) rotate(180)"/><rect class="g" width="33.688" height="5.615" rx="2.807" transform="translate(271.215 360.759) rotate(-180)"/><rect class="g" width="33.688" height="5.615" rx="2.807" transform="translate(271.215 407.012) rotate(-180)"/><rect class="g" width="33.688" height="5.615" rx="2.807" transform="translate(271.215 453.265) rotate(-180)"/><rect class="g" width="82.307" height="184.761" transform="translate(66.602 288.571)"/><path class="h" d="M347.431,144.636c12.45-43.979-4.921-72.566-4.921-72.566"/><ellipse class="e" cx="17.222" cy="1.408" rx="17.222" ry="1.408" transform="translate(328.176 143.84)"/><ellipse class="e" cx="17.222" cy="1.408" rx="17.222" ry="1.408" transform="translate(328.176 147.817)"/><rect class="e" width="34.444" height="3.977" transform="translate(328.176 145.248)"/><path class="e" d="M356.378,172.852h-21.96l-4.043-23.627h30.045Z"/><path class="h" d="M347.217,118.837c1.383,2.167,4.011,6.666,4.011,6.666"/><path class="h" d="M351.875,116.523c1.361-.928,5.217-6.182,5.217-6.182"/><path class="h" d="M351.635,105.543c-.145-1.744-5.044-6.192-5.044-6.192"/><path class="h" d="M350.252,94.158c-.408-1.337,1.672-7.929,1.672-7.929"/><path class="h" d="M347.1,82.694c-.793-2.115-7.486-3.665-7.486-3.665"/><path class="g" d="M335.774,108.056s1.545,8.924,5.254,12.481,8.238-2.315,7.982-5.406S335.774,108.056,335.774,108.056Z"/><path class="g" d="M335.774,88.432s1.545,8.923,5.254,12.481,8.577-2.212,7.263-5.021C346.591,92.261,335.774,88.432,335.774,88.432Z"/><path class="g" d="M337.8,57.7s-1.552,7.806.442,12.542,7.436,2.173,7.495-.927C345.818,65.253,337.8,57.7,337.8,57.7Z"/><path class="g" d="M326.8,77.709s5.96,5.274,11.056,5.938,5.625-5.327,2.976-6.941C337.362,74.594,326.8,77.709,326.8,77.709Z"/><path class="g" d="M368.488,98.92s-8.923,1.545-12.481,5.254,2.315,8.238,5.406,7.982S368.488,98.92,368.488,98.92Z"/><path class="g" d="M363.191,75.138s-4.315-1.266-12.012,5.917c-3.846,3.589,2.971,8,5.218,5.36A37.421,37.421,0,0,0,363.191,75.138Z"/><line class="c" x2="410.295" transform="translate(66.602 334.825)"/><line class="c" x2="410.295" transform="translate(66.602 381.078)"/><line class="c" x2="410.295" transform="translate(66.602 427.205)"/><rect class="b" width="246.077" height="6.695" rx="3.348" transform="translate(66.602 96.254)"/><path class="f" d="M249.983,76.6c0,5.467-4.432,5.2-9.9,5.2s-9.9.263-9.9-5.2S231.362,62,240.084,62,249.983,71.129,249.983,76.6Z"/><ellipse class="f" cx="6.749" cy="5.079" rx="6.749" ry="5.079" transform="translate(239.546 67.839) rotate(-73.506)"/><ellipse class="f" cx="2.873" cy="3.818" rx="2.873" ry="3.818" transform="translate(241.547 50.319) rotate(-3.777)"/><ellipse class="f" cx="3.654" cy="4.855" rx="3.654" ry="4.855" transform="translate(222.674 66.908) rotate(-37.341)"/><ellipse class="f" cx="2.849" cy="2.244" rx="2.849" ry="2.244" transform="translate(226.808 64.807) rotate(-70.235)"/><path class="d" d="M0,0H26.6a0,0,0,0,1,0,0V9.2a8,8,0,0,1-8,8H8a8,8,0,0,1-8-8V0A0,0,0,0,1,0,0Z" transform="translate(226.783 78.937)"/><path class="i" d="M0,0H26.6a0,0,0,0,1,0,0V5.851a8,8,0,0,1-8,8H8a8,8,0,0,1-8-8V0A0,0,0,0,1,0,0Z" transform="translate(226.783 82.285)"/><path class="d" d="M0,0H26.6a0,0,0,0,1,0,0V20.373a8,8,0,0,1-8,8H8a8,8,0,0,1-8-8V0A0,0,0,0,1,0,0Z" transform="translate(169.6 143.648)"/><rect class="f" width="29.11" height="4.354" rx="2.177" transform="translate(168.346 141.471)"/><path class="d" d="M0,0H26.6a0,0,0,0,1,0,0V20.373a8,8,0,0,1-8,8H8a8,8,0,0,1-8-8V0A0,0,0,0,1,0,0Z" transform="translate(204.181 143.648)"/><rect class="g" width="29.11" height="4.354" rx="2.177" transform="translate(202.928 141.471)"/><path class="d" d="M0,0H26.6a0,0,0,0,1,0,0V20.373a8,8,0,0,1-8,8H8a8,8,0,0,1-8-8V0A0,0,0,0,1,0,0Z" transform="translate(238.762 113.098)"/><rect class="g" width="29.11" height="4.354" rx="2.177" transform="translate(237.509 110.921)"/><path class="d" d="M0,0H26.6a0,0,0,0,1,0,0V20.373a8,8,0,0,1-8,8H8a8,8,0,0,1-8-8V0A0,0,0,0,1,0,0Z" transform="translate(238.762 143.648)"/><rect class="f" width="29.11" height="4.354" rx="2.177" transform="translate(237.509 141.471)"/><path class="j" d="M566.6,516.023c0-3.593-40.162-6.505-89.7-6.505-41.447,0-76.322,2.038-86.616,4.808a1.789,1.789,0,0,1-1.005-.015l-7.9-2.466a1.778,1.778,0,0,0-.532-.081H215.133l52.327,17.357c9.669,3.207,7.769,17.419-2.4,17.972-11.7.636-18.779,1.465-18.779,2.372,0,2,34.5,4.923,77.06,4.923,8.567,0,16.8-.12,24.5-.326l166.869-.614-41.389-12.915c-10.082-3.146-7.806-18.012,2.756-18.005h.827C526.44,522.528,566.6,519.616,566.6,516.023Z"/><rect class="i" width="18.501" height="7.445" rx="3.461" transform="translate(448.218 508.042)"/><rect class="i" width="18.501" height="7.445" rx="3.461" transform="translate(534.308 508.042)"/><rect class="e" width="104.592" height="106.368" transform="translate(448.218 400.81)"/><g class="k"><path class="l" d="M534,456.2a3.459,3.459,0,0,0-3.459,3.458h0a3.459,3.459,0,0,0,6.918,0h0A3.459,3.459,0,0,0,534,456.2Z"/><path class="l" d="M530.483,463.645h-3.96a3.431,3.431,0,0,0-3.43,3.431v.058a3.43,3.43,0,1,0,6.861,0V465.54a.3.3,0,0,1,.042-.155l.75-1.278a.3.3,0,0,0,.042-.158A.305.305,0,0,0,530.483,463.645Z"/><path class="l" d="M529.954,453.771v-1.6a3.43,3.43,0,0,0-6.861,0v.059a3.431,3.431,0,0,0,3.43,3.431h3.96a.308.308,0,0,0,.263-.463l-.75-1.278A.3.3,0,0,1,529.954,453.771Z"/><path class="l" d="M541.451,433.847a3.459,3.459,0,1,0,3.458,3.459A3.459,3.459,0,0,0,541.451,433.847Z"/><path class="l" d="M548.929,426.4a3.43,3.43,0,0,0-3.431,3.43v1.594a.3.3,0,0,1-.042.155l-.75,1.278a.305.305,0,0,0,.263.46h3.96a3.43,3.43,0,0,0,3.43-3.43v-.057A3.43,3.43,0,0,0,548.929,426.4Z"/><path class="l" d="M548.929,441.3h-3.96a.305.305,0,0,0-.263.46l.75,1.278a.3.3,0,0,1,.042.154v1.6a3.431,3.431,0,0,0,6.861,0v-.057A3.43,3.43,0,0,0,548.929,441.3Z"/><path class="l" d="M533.973,441.3a3.43,3.43,0,0,0-3.431,3.43v.057a3.431,3.431,0,0,0,3.431,3.43h0a3.43,3.43,0,0,0,3.43-3.43v-1.6a.31.31,0,0,1,.042-.154l.75-1.278a.305.305,0,0,0-.263-.46Z"/><path class="l" d="M537.4,431.422v-1.594a3.43,3.43,0,0,0-3.43-3.43h0a3.43,3.43,0,0,0-3.431,3.43v.057a3.431,3.431,0,0,0,3.431,3.43h3.959a.305.305,0,0,0,.263-.46l-.75-1.278A.314.314,0,0,1,537.4,431.422Z"/><path class="l" d="M548.9,411.5a3.459,3.459,0,1,0,3.459,3.459A3.459,3.459,0,0,0,548.9,411.5Z"/><path class="l" d="M556.378,404.049a3.43,3.43,0,0,0-3.43,3.43v1.594a.311.311,0,0,1-.042.155l-.751,1.278a.306.306,0,0,0,.264.46h3.959a3.429,3.429,0,0,0,3.43-3.43v-.057A3.43,3.43,0,0,0,556.378,404.049Z"/><path class="l" d="M556.378,418.948h-3.959a.306.306,0,0,0-.264.46l.751,1.278a.311.311,0,0,1,.042.155v1.594a3.43,3.43,0,1,0,6.86,0v-.057A3.43,3.43,0,0,0,556.378,418.948Z"/><path class="l" d="M545.381,418.948h-3.959a3.43,3.43,0,0,0-3.43,3.43v.057a3.431,3.431,0,0,0,6.861,0v-1.594a.3.3,0,0,1,.042-.155l.75-1.278A.305.305,0,0,0,545.381,418.948Z"/><path class="l" d="M544.9,409.228a.3.3,0,0,1-.042-.155v-1.594a3.431,3.431,0,0,0-6.861,0v.057a3.43,3.43,0,0,0,3.43,3.43h3.959a.305.305,0,0,0,.264-.46Z"/><path class="l" d="M504.175,456.2a3.43,3.43,0,0,0-3.431,3.43v.059a3.431,3.431,0,0,0,6.861,0v-1.594a.311.311,0,0,1,.042-.155l.75-1.278a.312.312,0,0,0,.043-.159.307.307,0,0,0-.306-.3Z"/><path class="l" d="M507.605,446.321v-1.594a3.431,3.431,0,0,0-6.861,0v.059a3.431,3.431,0,0,0,3.431,3.43h3.959a.307.307,0,0,0,.306-.3.312.312,0,0,0-.043-.159l-.75-1.278A.311.311,0,0,1,507.605,446.321Z"/><path class="l" d="M496.782,433.847h0a3.43,3.43,0,0,0-3.43,3.43v1.6a.3.3,0,0,1-.042.154l-.75,1.278a.305.305,0,0,0,.263.46h3.962a3.43,3.43,0,0,0,3.43-3.43v-.057A3.43,3.43,0,0,0,496.782,433.847Z"/><path class="l" d="M485.783,448.746h-3.959a3.431,3.431,0,0,0-3.431,3.43v.057a3.431,3.431,0,0,0,3.431,3.431h0a3.43,3.43,0,0,0,3.43-3.431v-1.594a.313.313,0,0,1,.042-.155l.751-1.278a.306.306,0,0,0-.264-.46Z"/><path class="l" d="M485.256,438.872v-1.6a3.43,3.43,0,0,0-3.43-3.43h0a3.431,3.431,0,0,0-3.431,3.43v.057a3.43,3.43,0,0,0,3.431,3.43h3.961a.306.306,0,0,0,.264-.46l-.751-1.278A.31.31,0,0,1,485.256,438.872Z"/><path class="l" d="M548.872,403.516a3.431,3.431,0,0,0,3.43-3.431v-1.594a.314.314,0,0,1,.042-.155l.75-1.278a.305.305,0,0,0-.263-.46h-3.959a3.43,3.43,0,0,0-3.43,3.43v.057A3.43,3.43,0,0,0,548.872,403.516Z"/><path class="l" d="M552.831,471.1h-3.959a3.43,3.43,0,0,0-3.43,3.43h0v.056h0a3.43,3.43,0,1,0,6.86,0h0v-1.593a.314.314,0,0,1,.042-.155l.75-1.278a.29.29,0,0,0,.043-.158A.306.306,0,0,0,552.831,471.1Z"/><path class="l" d="M553.094,462.653l-.75-1.278a.311.311,0,0,1-.042-.155v-1.593h0a3.43,3.43,0,0,0-6.86,0h0v.056h0a3.43,3.43,0,0,0,3.43,3.431h3.959a.307.307,0,0,0,.306-.3A.293.293,0,0,0,553.094,462.653Z"/><path class="l" d="M519.1,426.4a3.458,3.458,0,1,0,3.459,3.458A3.459,3.459,0,0,0,519.1,426.4Z"/><path class="l" d="M526.58,418.948h0a3.43,3.43,0,0,0-3.43,3.43v1.6a.31.31,0,0,1-.042.154l-.751,1.278a.305.305,0,0,0,.264.46h3.959a3.429,3.429,0,0,0,3.43-3.43v-.057A3.43,3.43,0,0,0,526.58,418.948Z"/><path class="l" d="M526.58,433.847h-3.959a.306.306,0,0,0-.264.46l.751,1.278a.313.313,0,0,1,.042.155v1.594a3.429,3.429,0,0,0,3.43,3.43h0a3.429,3.429,0,0,0,3.43-3.43v-.057A3.43,3.43,0,0,0,526.58,433.847Z"/><path class="l" d="M511.624,440.764a3.43,3.43,0,0,0,3.431-3.43V435.74a.3.3,0,0,1,.042-.155l.75-1.278a.306.306,0,0,0-.264-.46h-3.959a3.43,3.43,0,0,0-3.43,3.43v.057A3.43,3.43,0,0,0,511.624,440.764Z"/><path class="l" d="M515.055,423.973v-1.6a3.43,3.43,0,0,0-6.861,0v.057a3.43,3.43,0,0,0,3.43,3.43h3.959a.306.306,0,0,0,.264-.46l-.75-1.278A.3.3,0,0,1,515.055,423.973Z"/><path class="l" d="M496.754,418.948h0a3.458,3.458,0,0,0,0,6.917h0a3.458,3.458,0,0,0,0-6.917Z"/><path class="l" d="M504.231,426.4H500.27a.306.306,0,0,0-.264.46l.751,1.278a.31.31,0,0,1,.042.154v1.6a3.43,3.43,0,0,0,3.43,3.43h0a3.431,3.431,0,0,0,3.431-3.43v-.057A3.43,3.43,0,0,0,504.231,426.4Z"/><path class="l" d="M493.235,426.4h-3.962a3.43,3.43,0,0,0-3.43,3.43v.057a3.43,3.43,0,0,0,3.43,3.43h0a3.43,3.43,0,0,0,3.43-3.43v-1.6a.3.3,0,0,1,.042-.154l.75-1.278A.305.305,0,0,0,493.235,426.4Z"/><path class="l" d="M492.748,416.678a.3.3,0,0,1-.042-.155v-1.594a3.431,3.431,0,0,0-3.43-3.431h0a3.431,3.431,0,0,0-3.43,3.431v.057a3.43,3.43,0,0,0,3.43,3.43h3.962a.305.305,0,0,0,.263-.46Z"/><path class="l" d="M504.2,396.6a3.459,3.459,0,1,0,3.459,3.458A3.45,3.45,0,0,0,504.2,396.6Z"/><path class="l" d="M511.68,404.048h-3.959a.3.3,0,0,0-.158.044.305.305,0,0,0-.107.417l.75,1.278a.3.3,0,0,1,.042.155v1.594a3.43,3.43,0,0,0,3.431,3.43h0a3.431,3.431,0,0,0,3.432-3.431v-.056A3.431,3.431,0,0,0,511.68,404.048Z"/><path class="l" d="M526.551,404.048a3.459,3.459,0,1,0,3.459,3.459A3.459,3.459,0,0,0,526.551,404.048Z"/><path class="l" d="M534.029,396.6a3.43,3.43,0,0,0-3.43,3.43v1.594a.311.311,0,0,1-.042.155l-.75,1.278a.305.305,0,0,0,.263.46h3.959a3.431,3.431,0,0,0,3.431-3.43v-.057A3.431,3.431,0,0,0,534.029,396.6Z"/><path class="l" d="M534.029,411.5H530.07a.305.305,0,0,0-.263.46l.75,1.278a.311.311,0,0,1,.042.155v1.594a3.431,3.431,0,0,0,6.861,0v-.057A3.431,3.431,0,0,0,534.029,411.5Z"/><path class="l" d="M523.033,411.5h-3.96a3.43,3.43,0,0,0-3.43,3.43v.057a3.431,3.431,0,0,0,6.861,0v-1.594a.3.3,0,0,1,.042-.155l.75-1.278A.305.305,0,0,0,523.033,411.5Z"/><path class="l" d="M522.546,401.778a.3.3,0,0,1-.042-.155v-1.594a3.431,3.431,0,0,0-6.861,0v.057a3.43,3.43,0,0,0,3.43,3.43h3.96a.305.305,0,0,0,.263-.46Z"/><path class="l" d="M541.479,455.666a3.43,3.43,0,0,0,3.43-3.431v-.059a3.43,3.43,0,0,0-6.86,0v1.6a.3.3,0,0,1-.043.154l-.75,1.278a.308.308,0,0,0,.264.463Z"/><path class="l" d="M538.049,465.54v1.594a3.43,3.43,0,1,0,6.86,0v-.058a3.43,3.43,0,0,0-3.43-3.431H537.52a.306.306,0,0,0-.306.3.3.3,0,0,0,.042.158l.75,1.278A.3.3,0,0,1,538.049,465.54Z"/><path class="l" d="M544.969,507.813h3.96a3.43,3.43,0,0,0,3.43-3.43v-.057a3.431,3.431,0,0,0-6.861,0v1.594a.3.3,0,0,1-.042.155l-.75,1.278A.305.305,0,0,0,544.969,507.813Z"/><path class="l" d="M533.973,507.813h3.959a.305.305,0,0,0,.263-.46l-.75-1.278a.311.311,0,0,1-.042-.155v-1.594a3.43,3.43,0,0,0-3.43-3.43h0a3.43,3.43,0,0,0-3.431,3.43v.057A3.431,3.431,0,0,0,533.973,507.813Z"/><path class="l" d="M548.9,492.914a3.458,3.458,0,1,0-3.458-3.459A3.459,3.459,0,0,0,548.9,492.914Z"/><path class="l" d="M556.378,478.547a3.43,3.43,0,0,0-3.43,3.43v1.6a.31.31,0,0,1-.042.154L552.155,485a.306.306,0,0,0,.264.46h3.959a3.429,3.429,0,0,0,3.43-3.43v-.057A3.43,3.43,0,0,0,556.378,478.547Z"/><path class="l" d="M552.948,495.339v1.594a3.43,3.43,0,0,0,6.86,0v-.057a3.43,3.43,0,0,0-3.43-3.43h-3.959a.306.306,0,0,0-.264.46l.751,1.278A.314.314,0,0,1,552.948,495.339Z"/><path class="l" d="M541.422,500.363a3.43,3.43,0,0,0,3.431-3.43v-1.594a.3.3,0,0,1,.042-.155l.75-1.278a.305.305,0,0,0-.264-.46h-3.959a3.43,3.43,0,0,0-3.43,3.43v.057A3.43,3.43,0,0,0,541.422,500.363Z"/><path class="l" d="M541.422,485.464h3.959a.305.305,0,0,0,.264-.46l-.75-1.278a.3.3,0,0,1-.042-.154v-1.6a3.431,3.431,0,0,0-6.861,0v.057A3.43,3.43,0,0,0,541.422,485.464Z"/><path class="l" d="M511.652,455.666a3.459,3.459,0,0,0,3.459-3.459h0a3.459,3.459,0,1,0-6.917,0h0A3.459,3.459,0,0,0,511.652,455.666Z"/><path class="l" d="M515.171,448.216h3.96a3.43,3.43,0,0,0,3.43-3.43v-.059a3.43,3.43,0,0,0-6.861,0v1.594a.3.3,0,0,1-.042.155l-.75,1.278a.3.3,0,0,0-.042.159A.305.305,0,0,0,515.171,448.216Z"/><path class="l" d="M515.7,458.091v1.594a3.43,3.43,0,0,0,6.861,0v-.059a3.43,3.43,0,0,0-3.43-3.43h-3.96a.305.305,0,0,0-.3.3.3.3,0,0,0,.042.159l.75,1.278A.3.3,0,0,1,515.7,458.091Z"/><path class="l" d="M519.1,507.813a3.458,3.458,0,1,0-3.459-3.459A3.459,3.459,0,0,0,519.1,507.813Z"/><path class="l" d="M522.621,500.363h3.959a3.429,3.429,0,0,0,3.43-3.43v-.057a3.43,3.43,0,0,0-3.43-3.43h0a3.43,3.43,0,0,0-3.43,3.43v1.6a.309.309,0,0,1-.042.154l-.751,1.278A.305.305,0,0,0,522.621,500.363Z"/><path class="l" d="M511.624,500.363h3.959a.306.306,0,0,0,.264-.46l-.75-1.278a.3.3,0,0,1-.042-.154v-1.6a3.43,3.43,0,0,0-6.861,0v.057A3.43,3.43,0,0,0,511.624,500.363Z"/><path class="l" d="M492.706,502.788a.3.3,0,0,1,.042-.154l.75-1.278a.305.305,0,0,0-.263-.46h-3.962a3.43,3.43,0,0,0-3.43,3.43v.057a3.43,3.43,0,0,0,3.43,3.43h0a3.43,3.43,0,0,0,3.43-3.43Z"/><path class="l" d="M526.551,485.464a3.459,3.459,0,1,0-3.459-3.459A3.459,3.459,0,0,0,526.551,485.464Z"/><path class="l" d="M534.029,478.014a3.431,3.431,0,0,0,3.431-3.43v-.057a3.431,3.431,0,0,0-6.861,0v1.594a.311.311,0,0,1-.042.155l-.75,1.278a.305.305,0,0,0,.263.46Z"/><path class="l" d="M530.6,487.889v1.594a3.431,3.431,0,0,0,6.861,0v-.057a3.431,3.431,0,0,0-3.431-3.43H530.07a.305.305,0,0,0-.263.46l.75,1.278A.311.311,0,0,1,530.6,487.889Z"/><path class="l" d="M519.073,492.913a3.43,3.43,0,0,0,3.431-3.43v-1.594a.3.3,0,0,1,.042-.155l.75-1.278a.305.305,0,0,0-.263-.46h-3.96a3.43,3.43,0,0,0-3.43,3.43v.057A3.43,3.43,0,0,0,519.073,492.913Z"/><path class="l" d="M519.073,478.014h3.96a.305.305,0,0,0,.263-.46l-.75-1.278a.3.3,0,0,1-.042-.155v-1.594a3.431,3.431,0,0,0-6.861,0v.057A3.43,3.43,0,0,0,519.073,478.014Z"/><path class="l" d="M459.5,456.2a3.458,3.458,0,0,0-3.459,3.458h0a3.458,3.458,0,1,0,6.917,0h0A3.458,3.458,0,0,0,459.5,456.2Z"/><path class="l" d="M455.985,463.645h-3.959a3.431,3.431,0,0,0-3.431,3.431v.058a3.43,3.43,0,1,0,6.861,0V465.54a.3.3,0,0,1,.042-.155l.75-1.278a.3.3,0,0,0,.042-.158A.305.305,0,0,0,455.985,463.645Z"/><path class="l" d="M455.456,453.771v-1.6a3.43,3.43,0,0,0-6.861,0v.059a3.431,3.431,0,0,0,3.431,3.431h3.959a.308.308,0,0,0,.263-.463l-.75-1.278A.3.3,0,0,1,455.456,453.771Z"/><path class="l" d="M466.953,433.847a3.459,3.459,0,1,0,3.459,3.459A3.459,3.459,0,0,0,466.953,433.847Z"/><path class="l" d="M474.431,426.4a3.429,3.429,0,0,0-3.43,3.43v1.594a.314.314,0,0,1-.042.155l-.751,1.278a.306.306,0,0,0,.264.46h3.959a3.43,3.43,0,0,0,3.43-3.43v-.057A3.43,3.43,0,0,0,474.431,426.4Z"/><path class="l" d="M474.431,441.3h-3.959a.306.306,0,0,0-.264.46l.751,1.278a.31.31,0,0,1,.042.154v1.6a3.43,3.43,0,1,0,6.86,0v-.057A3.43,3.43,0,0,0,474.431,441.3Z"/><path class="l" d="M459.475,441.3a3.43,3.43,0,0,0-3.43,3.43v.057a3.43,3.43,0,1,0,6.86,0v-1.6a.31.31,0,0,1,.042-.154l.751-1.278a.305.305,0,0,0-.264-.46Z"/><path class="l" d="M462.9,431.422v-1.594a3.43,3.43,0,0,0-6.86,0v.057a3.43,3.43,0,0,0,3.43,3.43h3.959a.306.306,0,0,0,.264-.46l-.751-1.278A.314.314,0,0,1,462.9,431.422Z"/><path class="l" d="M474.4,411.5a3.459,3.459,0,1,0,3.459,3.459A3.459,3.459,0,0,0,474.4,411.5Z"/><path class="l" d="M481.881,404.049a3.431,3.431,0,0,0-3.431,3.43v1.594a.3.3,0,0,1-.042.155l-.75,1.278a.305.305,0,0,0,.263.46h3.96a3.43,3.43,0,0,0,3.43-3.43v-.057A3.43,3.43,0,0,0,481.881,404.049Z"/><path class="l" d="M481.881,418.948h-3.96a.305.305,0,0,0-.263.46l.75,1.278a.3.3,0,0,1,.042.155v1.594a3.43,3.43,0,0,0,6.861,0v-.057A3.43,3.43,0,0,0,481.881,418.948Z"/><path class="l" d="M470.884,418.948h-3.959a3.431,3.431,0,0,0-3.431,3.43v.057a3.431,3.431,0,0,0,6.861,0v-1.594a.311.311,0,0,1,.042-.155l.75-1.278A.305.305,0,0,0,470.884,418.948Z"/><path class="l" d="M470.4,409.228a.311.311,0,0,1-.042-.155v-1.594a3.431,3.431,0,0,0-6.861,0v.057a3.43,3.43,0,0,0,3.431,3.43h3.959a.305.305,0,0,0,.263-.46Z"/><path class="l" d="M489.3,448.214h0a3.458,3.458,0,1,0,0-6.917h0a3.458,3.458,0,1,0,0,6.917Z"/><path class="l" d="M493.349,450.639v1.594a3.431,3.431,0,0,0,3.43,3.431h0a3.431,3.431,0,0,0,3.43-3.431v-.057a3.43,3.43,0,0,0-3.43-3.43H492.82a.305.305,0,0,0-.263.46l.75,1.278A.3.3,0,0,1,493.349,450.639Z"/><path class="l" d="M500.8,416.523a.313.313,0,0,1-.042.155l-.751,1.278a.306.306,0,0,0,.264.46h3.961a3.431,3.431,0,0,0,3.431-3.43v-.057a3.431,3.431,0,0,0-3.431-3.431h0a3.431,3.431,0,0,0-3.43,3.431Z"/><path class="l" d="M496.723,410.966a3.43,3.43,0,0,0,3.432-3.431v-1.594a.3.3,0,0,1,.042-.155l.75-1.278a.305.305,0,0,0-.263-.46h-3.959a3.431,3.431,0,0,0-3.433,3.431v.057A3.43,3.43,0,0,0,496.723,410.966Z"/><path class="l" d="M489.33,396.6h-3.959a.306.306,0,0,0-.264.46l.751,1.278a.313.313,0,0,1,.042.155v1.594a3.43,3.43,0,1,0,6.86,0v-.057A3.43,3.43,0,0,0,489.33,396.6Z"/><path class="l" d="M474.374,403.516a3.431,3.431,0,0,0,3.431-3.431v-1.594a.3.3,0,0,1,.042-.155l.75-1.278a.306.306,0,0,0-.264-.46h-3.959a3.43,3.43,0,0,0-3.43,3.43v.057A3.431,3.431,0,0,0,474.374,403.516Z"/><path class="l" d="M481.852,463.645a3.459,3.459,0,0,0-3.459,3.459h0a3.459,3.459,0,0,0,6.918,0h0A3.459,3.459,0,0,0,481.852,463.645Z"/><path class="l" d="M478.333,471.1h-3.959a3.43,3.43,0,0,0-3.43,3.43h0v.056h0a3.43,3.43,0,1,0,6.861,0h0v-1.593a.3.3,0,0,1,.042-.155l.75-1.278a.3.3,0,0,0,.042-.158A.3.3,0,0,0,478.333,471.1Z"/><path class="l" d="M477.8,461.22v-1.593h0a3.43,3.43,0,0,0-6.861,0h0v.056h0a3.431,3.431,0,0,0,3.43,3.431h3.959a.306.306,0,0,0,.306-.3.3.3,0,0,0-.042-.158l-.75-1.278A.3.3,0,0,1,477.8,461.22Z"/><path class="l" d="M452.082,418.948a3.43,3.43,0,0,0-3.43,3.43v1.6a.31.31,0,0,1-.042.154l-.75,1.278a.305.305,0,0,0,.263.46h3.959a3.43,3.43,0,0,0,3.431-3.43v-.057A3.431,3.431,0,0,0,452.082,418.948Z"/><path class="l" d="M452.082,433.847h-3.959a.305.305,0,0,0-.263.46l.75,1.278a.313.313,0,0,1,.042.155v1.594a3.43,3.43,0,0,0,6.861,0v-.057A3.431,3.431,0,0,0,452.082,433.847Z"/><path class="l" d="M452.054,404.048a3.459,3.459,0,1,0,3.458,3.459A3.459,3.459,0,0,0,452.054,404.048Z"/><path class="l" d="M459.531,396.6a3.43,3.43,0,0,0-3.43,3.43v1.594a.3.3,0,0,1-.042.155l-.75,1.278a.305.305,0,0,0,.263.46h3.959a3.431,3.431,0,0,0,3.431-3.43v-.057A3.431,3.431,0,0,0,459.531,396.6Z"/><path class="l" d="M459.531,411.5h-3.959a.305.305,0,0,0-.263.46l.75,1.278a.3.3,0,0,1,.042.155v1.594a3.43,3.43,0,0,0,6.861,0v-.057A3.431,3.431,0,0,0,459.531,411.5Z"/><path class="l" d="M448.535,411.5h-3.959a3.431,3.431,0,0,0-3.431,3.43v.057a3.431,3.431,0,0,0,6.861,0v-1.594a.311.311,0,0,1,.042-.155l.75-1.278A.305.305,0,0,0,448.535,411.5Z"/><path class="l" d="M466.981,455.666a3.431,3.431,0,0,0,3.431-3.431v-.059a3.43,3.43,0,0,0-6.861,0v1.6a.3.3,0,0,1-.042.154l-.75,1.278a.315.315,0,0,0-.043.159.307.307,0,0,0,.306.3Z"/><path class="l" d="M463.551,465.54v1.594a3.43,3.43,0,1,0,6.861,0v-.058a3.431,3.431,0,0,0-3.431-3.431h-3.959a.306.306,0,0,0-.263.462l.75,1.278A.3.3,0,0,1,463.551,465.54Z"/><path class="l" d="M470.472,507.813h3.959a3.43,3.43,0,0,0,3.43-3.43v-.057a3.43,3.43,0,1,0-6.86,0v1.594a.311.311,0,0,1-.042.155l-.751,1.278A.306.306,0,0,0,470.472,507.813Z"/><path class="l" d="M459.475,507.813h3.959a.305.305,0,0,0,.264-.46l-.751-1.278a.311.311,0,0,1-.042-.155v-1.594a3.43,3.43,0,1,0-6.86,0v.057A3.43,3.43,0,0,0,459.475,507.813Z"/><path class="l" d="M474.4,492.914a3.458,3.458,0,1,0-3.458-3.459A3.459,3.459,0,0,0,474.4,492.914Z"/><path class="l" d="M481.881,478.547a3.431,3.431,0,0,0-3.431,3.43v1.6a.3.3,0,0,1-.042.154l-.75,1.278a.305.305,0,0,0,.263.46h3.96a3.43,3.43,0,0,0,3.43-3.43v-.057A3.43,3.43,0,0,0,481.881,478.547Z"/><path class="l" d="M478.45,495.339v1.594a3.43,3.43,0,0,0,6.861,0v-.057a3.43,3.43,0,0,0-3.43-3.43h-3.96a.305.305,0,0,0-.263.46l.75,1.278A.3.3,0,0,1,478.45,495.339Z"/><path class="l" d="M466.925,500.363a3.43,3.43,0,0,0,3.43-3.43v-1.594a.313.313,0,0,1,.042-.155l.75-1.278a.305.305,0,0,0-.263-.46h-3.959a3.431,3.431,0,0,0-3.431,3.43v.057A3.43,3.43,0,0,0,466.925,500.363Z"/><path class="l" d="M466.925,485.464h3.959a.305.305,0,0,0,.263-.46l-.75-1.278a.31.31,0,0,1-.042-.154v-1.6a3.431,3.431,0,0,0-6.861,0v.057A3.43,3.43,0,0,0,466.925,485.464Z"/><path class="l" d="M496.751,500.363h0a3.458,3.458,0,0,0,0-6.917h0a3.458,3.458,0,0,0,0,6.917Z"/><path class="l" d="M500.27,492.914h3.961a3.431,3.431,0,0,0,3.431-3.43v-.057a3.43,3.43,0,0,0-3.431-3.43h0a3.43,3.43,0,0,0-3.43,3.43v1.594a.311.311,0,0,1-.042.155l-.751,1.278A.306.306,0,0,0,500.27,492.914Z"/><path class="l" d="M500.757,502.634a.31.31,0,0,1,.042.154v1.6a3.43,3.43,0,0,0,3.43,3.43h0a3.431,3.431,0,0,0,3.431-3.43v-.057a3.43,3.43,0,0,0-3.431-3.43H500.27a.306.306,0,0,0-.264.46Z"/><path class="l" d="M489.273,492.914h3.962a.305.305,0,0,0,.263-.46l-.75-1.278a.3.3,0,0,1-.042-.155v-1.594a3.43,3.43,0,0,0-3.43-3.43h0a3.43,3.43,0,0,0-3.43,3.43v.057A3.43,3.43,0,0,0,489.273,492.914Z"/><path class="l" d="M504.2,478.015a3.459,3.459,0,1,0-3.459-3.459A3.455,3.455,0,0,0,504.2,478.015Z"/><path class="l" d="M511.679,470.565a3.431,3.431,0,0,0,3.432-3.431v-.056a3.432,3.432,0,1,0-6.863,0v1.594a.3.3,0,0,1-.042.155l-.75,1.278a.305.305,0,0,0,.263.46Z"/><path class="l" d="M508.248,480.44v1.594a3.43,3.43,0,0,0,3.431,3.43h0a3.428,3.428,0,0,0,3.432-3.431v-.056a3.431,3.431,0,0,0-3.431-3.431h-3.959a.307.307,0,0,0-.265.461l.75,1.278A.3.3,0,0,1,508.248,480.44Z"/><path class="l" d="M496.723,485.464a3.43,3.43,0,0,0,3.432-3.431v-1.594a.3.3,0,0,1,.042-.154l.75-1.279a.305.305,0,0,0-.263-.46h-3.959a3.431,3.431,0,0,0-3.433,3.431v.057A3.43,3.43,0,0,0,496.723,485.464Z"/><path class="l" d="M496.723,470.565h3.959a.305.305,0,0,0,.265-.46l-.75-1.279a.3.3,0,0,1-.042-.154v-1.594a3.432,3.432,0,0,0-6.863,0v.057A3.43,3.43,0,0,0,496.723,470.565Z"/><path class="l" d="M489.33,463.115a3.43,3.43,0,0,0,3.43-3.431h0v-.056h0a3.43,3.43,0,0,0-6.86,0h0v1.593a.311.311,0,0,1-.042.155l-.751,1.278a.3.3,0,0,0-.042.158.307.307,0,0,0,.306.3Z"/><path class="l" d="M485.9,472.989v1.593h0a3.43,3.43,0,1,0,6.86,0h0v-.056h0a3.43,3.43,0,0,0-3.43-3.43h-3.959a.306.306,0,0,0-.306.3.3.3,0,0,0,.042.158l.751,1.278A.313.313,0,0,1,485.9,472.989Z"/><path class="l" d="M448.123,500.363h3.959a3.43,3.43,0,0,0,3.431-3.43v-.057a3.43,3.43,0,0,0-6.861,0v1.6a.31.31,0,0,1-.042.154l-.75,1.278A.305.305,0,0,0,448.123,500.363Z"/><path class="l" d="M452.054,485.464a3.459,3.459,0,1,0-3.459-3.459A3.459,3.459,0,0,0,452.054,485.464Z"/><path class="l" d="M459.531,478.014a3.431,3.431,0,0,0,3.431-3.43v-.057a3.43,3.43,0,0,0-6.861,0v1.594a.3.3,0,0,1-.042.155l-.75,1.278a.305.305,0,0,0,.263.46Z"/><path class="l" d="M456.1,487.889v1.594a3.43,3.43,0,0,0,6.861,0v-.057a3.431,3.431,0,0,0-3.431-3.43h-3.959a.305.305,0,0,0-.263.46l.75,1.278A.3.3,0,0,1,456.1,487.889Z"/><path class="l" d="M444.576,492.913a3.43,3.43,0,0,0,3.43-3.43v-1.594a.311.311,0,0,1,.042-.155l.75-1.278a.305.305,0,0,0-.263-.46h-3.959a3.431,3.431,0,0,0-3.431,3.43v.057A3.43,3.43,0,0,0,444.576,492.913Z"/><path class="l" d="M444.576,478.014h3.959a.305.305,0,0,0,.263-.46l-.75-1.278a.311.311,0,0,1-.042-.155v-1.594a3.431,3.431,0,0,0-6.861,0v.057A3.431,3.431,0,0,0,444.576,478.014Z"/></g><path class="f" d="M552.809,390.517c0,1.895-23.413,3.431-52.3,3.431s-52.3-1.536-52.3-3.431,23.413-7.168,52.3-7.168S552.809,388.622,552.809,390.517Z"/><rect class="f" width="104.592" height="6.862" transform="translate(448.218 390.517)"/><rect class="m" width="113.561" height="8.497" rx="3.95" transform="translate(443.733 396.561)"/><rect class="m" width="113.561" height="8.497" rx="3.95" transform="translate(443.733 503.267)"/><path class="n" d="M222.169,336.962v176.33c0,.48,1.926.87,4.3.87s4.3-.39,4.3-.87V336.962Z"/><path class="n" d="M366.681,336.962v176.33c0,.48,1.926.87,4.3.87s4.3-.39,4.3-.87V336.962Z"/><path class="f" d="M424.5,218.722c.172,2.088,4.542-1.654,6.738-2.08s6.852-2.249,7.919,1.768-6.469,3.681-9.22,7.132-10.268,9.13-16.5,8.968,1.225-12.781,1.225-12.781l9.171-9.745s4.975-1.737,4.086,1.048S424.371,217.151,424.5,218.722Z"/><path class="o" d="M439.9,205.222c3.827,1.454,8.462,2.118,8.378,4.507s-3.673,2.61-6.094,3.338-1.094,1.66-8.239.8-13.645,4.014-14.341,4.781-3.181,4.154-2.178,11.909-15.457,6.045-15.944.863,7.788-11.268,10-14.417,6.581-10.7,8.822-11.65,2.756-.485,8.661-.953A37.335,37.335,0,0,1,439.9,205.222Z"/><path class="p" d="M401.093,324.756a8.7,8.7,0,0,0,6.216-2.437c10.744-10.075,33.442-38.823,47.29-53.384,8.72-9.169,3.167-24.228-3.249-28.328-15.83-10.116-24.234,4.2-45.554,41.174-10.765,18.671-12.813,33.771-8.744,39.25A11.489,11.489,0,0,0,401.093,324.756Z"/><path class="p" d="M414.429,285.956s-3.137-8,.872-27.795c2.7-13.326,1.534-21.443.927-23.006-.551-1.421-14.63-8.21-16.734-6.23-3.019,2.841.592,18.935-8.88,47.757-4.758,14.48-5.949,24.724,6.438,44.349Z"/><path class="c" d="M438.27,259.907c-13.2,12.106-22.952,30.924-30.326,42.473s-7.994,9.473-3.03,1.118-1.513-4.11-6.841,2.97-.326-11.974,3.389-29.786,7.663-46.109,7.663-46.109"/><path class="o" d="M411.269,474.105c5.612,7.487,7.159,4.434,10.512,6.834,3.613,2.586,4.5,5.9,1.341,10.332-5.049,7.088-5.126,2.922-14.184,22.813-1.2,2.634-12.992,2.132-16.6,1.132-3.017-.834,2.242-6.177,2.51-7.893,1.414-9.024,4.454-21.25,4.454-21.25Z"/><rect class="q" width="67.754" height="3.331" rx="1.549" transform="translate(360.869 515.878)"/><path class="q" d="M404.914,515.878H362.379A17.285,17.285,0,0,1,374.3,499.445l15.774-2.612a4.764,4.764,0,0,1,4.875,2.268Z"/><path class="r" d="M412.029,472.755c-16.625-45.653-40.278-95.982-47.968-105.72s-32.871-13.78-38.078,4.037,10.187,35.056,18.751,46.142,50.481,71.456,51.284,73.207C402.243,489.021,408,484.335,412.029,472.755Z"/><path class="r" d="M336.9,359.8c-13.853,7.04-7.1,27.544,19,29.556s68.257-.778,100.074-7.125c29.564-5.9,35.073-14.609,31.418-33.857-2.38-12.533-18.655-15-33.194-12.853C429.4,339.176,363.019,346.522,336.9,359.8Z"/><path class="s" d="M466.177,358.479c-53.777,5.649-102.321,16.069-107.294,17.016s-20.128-12.314-9.709-2.842,13.261,12.787,5.683,8.288-5.245-.653-.491,7.133,51.52,96.183,51.52,96.183"/><path class="o" d="M326.382,526.224c-2.841,8.915.542,8.4.533,12.526-.01,4.444-2.19,7.088-7.637,7.088-8.7,0-4.44-3.331-26.107,0,0,0-11.544-9.633-3.374-13.718s19.891-8.7,19.891-8.7Z"/><path class="t" d="M360.027,408.744c-12.829,11.427.226,32.621,27.862,26.246s55.265-22.215,89.749-31.582c30.9-8.395,49.638-25.383,37.888-51.256-5.55-12.22-21.918-15.471-36.573-8.678C453.961,355.059,384.219,387.2,360.027,408.744Z"/><path class="t" d="M327.116,527.94c31.509-36.983,59.609-85.126,64.286-96.62s-2.967-32.089-21.034-27.828S347.646,429.086,342.228,442s-37.251,79.162-38.378,80.725C308.139,527.452,315.054,530.146,327.116,527.94Z"/><rect class="q" width="67.754" height="3.331" rx="1.549" transform="translate(263.595 545.838)"/><path class="q" d="M307.639,545.838H265.1a17.287,17.287,0,0,1,11.924-16.433l15.774-2.611a4.763,4.763,0,0,1,4.875,2.268Z"/><path class="i" d="M476.547,218.929c-30.091-2.488-36.846-1.871-52.011,32.5-8.847,20.053-4.824,29.193.063,33.329,6.85,5.8,10.931,9.876,13.375,18.509,2.91,10.275.963,18.188-.822,32.245A10.463,10.463,0,0,0,439.075,343c12.991,17.815,49.445,22.546,73.788,10.732a6.379,6.379,0,0,0,3.177-8.154c-7.9-19.185-20.43-38.895-16.379-61.8C505.459,250.983,494.124,220.382,476.547,218.929Z"/><g class="u"><path class="p" d="M440.927,286.2c-5.339.115-4.815,4.758,2.806,5.469s24.155-.711,28.142,7.1,5.72,29.393,1.3,38.258S452.77,343,454.193,353.861s39.784,11.567,53.992,8.549,15.37-9.056,10.882-17.225-8.4-11.473-11.237-34.863-3.277-43.594-6.789-48.943-20.347-14.5-23.109,5.373S468.294,285.609,440.927,286.2Z"/></g><path class="f" d="M442.572,215.556c1.061,2.987,3.6,6.973-1,18.722-2.082,5.314,1.315,5.642,4.1,6.211,3.907.8,11.233-2.589,14.478-6.784a43.17,43.17,0,0,1,13.029-11.262s-6.294-5.129-10.351-18.158a181.931,181.931,0,0,1-5.214-19.514l-5.948,1.453Z"/><path class="o" d="M414.648,188.65c-3.8,3.911,11.4,37.207,22.608,37.207s22.37-24.052,19.178-33.225-7.806-17.826-15.882-16.507S419.663,183.493,414.648,188.65Z"/><path class="i" d="M478.944,228.184c-16.106,11.388-5.767,30.332,24.914,71.947,0,0-40.563,7.155-54.178,11.2a10.063,10.063,0,0,0-5.947,9.15c0,6.758,7.824,7.087,8.977,7.087s33.064-2.263,48.05-3.276c16.259-1.1,35.385-5.129,39.349-12.27,1.679-3.025-21.334-55.936-36.251-76.665C496.467,225.082,485.161,223.788,478.944,228.184Z"/><path class="p" d="M443.733,320.477a7.219,7.219,0,0,0,.241,1.838c1.711,2.748,5.265,4.642,9.386,4.642,5.785,0,10.475-3.724,10.475-8.318s-4.687-8.315-10.469-8.317c-1.368.35-2.618.688-3.686,1.005A10.063,10.063,0,0,0,443.733,320.477Z"/><path class="f" d="M433.656,310.907c.025,2.094-4.676-1.222-6.9-1.44s-7.032-1.6-7.719,2.5,6.786,3.059,9.848,6.237,11.078,8.128,17.268,7.383-2.417-12.61-2.417-12.61l-10.044-8.844s-5.115-1.263-3.97,1.427S433.638,309.33,433.656,310.907Z"/><path class="o" d="M417.059,298.909c-3.674,1.806-8.227,2.9-7.919,5.271s3.9,2.255,6.379,2.753,1.245,1.55,8.279.028,13.961,2.719,14.725,3.417,3.556,3.837,3.284,11.652,15.955,4.571,15.955-.633-8.809-10.49-11.309-13.418-7.554-10.037-9.874-10.772-2.789-.225-8.712-.138A37.314,37.314,0,0,0,417.059,298.909Z"/><path class="q" d="M430.078,146.943c-11.244,3.115-22.893,15.711-22.1,27.892s6.453,24.128,8.625,26.642-3.54-9.449-2.149-11.191,22.679-9.467,25.889-7.269c9.615,6.581,8.649,13.5,20.691,10.941s10.317-23.493,6.819-30.367S450.119,141.392,430.078,146.943Z"/><path class="o" d="M340.737,330.927l170.416-1.479-141.31-6.123H222.169Z"/><path class="f" d="M340.737,329.448l-118.568-6.126V338.35l118.568,6.126H511.153V329.448Z"/><path class="r" d="M366.363,268.578l3.4-.022,2.844,2.036-2.775,2.107Z"/><path class="t" d="M349.934,321.217l55.113-.353,50.345,3.5L353,325.015Z"/><path class="r" d="M0,0H58.164a0,0,0,0,1,0,0V2.484a2,2,0,0,1-2,2H0a0,0,0,0,1,0,0V0A0,0,0,0,1,0,0Z" transform="translate(397.229 324.732) rotate(-0.367)"/><path class="r" d="M400.4,326.025l-24.782-56.113a2.105,2.105,0,0,0-1.873-1.254l-3.984-.1,27.489,60.659Z"/><path class="t" d="M397.258,329.216l-46.7-4.128a1.053,1.053,0,0,1-.86-.6l-24.752-52.654a2.105,2.105,0,0,1,1.892-3l41.55-.266a2.106,2.106,0,0,1,1.932,1.236Z"/><ellipse class="b" cx="2.366" cy="3.658" rx="2.366" ry="3.658" transform="translate(354.132 297.09) rotate(-30.367)"/><path class="i" d="M340.737,344.477v208.1c0,.481,1.926.871,4.3.871s4.3-.39,4.3-.871v-208.1Z"/><path class="i" d="M502.589,344.477v208.1c0,.481,1.926.871,4.3.871s4.3-.39,4.3-.871v-208.1Z"/><path class="v" d="M437.069,234.514c-2.41,6,1.056,11.482,6.664,11.112s15.364-5.334,26.707-17.06"/><path class="v" d="M478.112,230.573c-8.643,10.034-9.916,17.106,4.055,40.641"/><ellipse class="w" cx="14.74" cy="1.085" rx="14.74" ry="1.085" transform="translate(289.569 323.495)"/><rect class="w" width="29.48" height="31.429" transform="translate(289.569 293.151)"/><ellipse class="f" cx="14.74" cy="1.698" rx="14.74" ry="1.698" transform="translate(289.569 291.453)"/><path class="w" d="M281.667,300.748l-.4,4.777a4.714,4.714,0,0,0,.754,2.969l3.762,5.744a7.338,7.338,0,0,0,3.168,2.687l3.393,1.5V297.14l-5.4-.677A4.71,4.71,0,0,0,281.667,300.748Zm7.854,13.336-4.6-6.326a4.708,4.708,0,0,1-.754-2.969l.268-3.246a2.424,2.424,0,0,1,2.716-2.2l2.367.3Z"/><circle class="q" cx="23.803" cy="23.803" r="23.803" transform="translate(420.306 129.439)"/><rect class="b" width="328.507" height="6.695" rx="3.348" transform="translate(66.602 172.021)"/><path class="h" d="M159.861,260.481c-12.45-43.978,4.921-72.566,4.921-72.566"/><path class="h" d="M160.075,234.683c-1.383,2.166-4.011,6.665-4.011,6.665"/><path class="h" d="M155.417,232.369c-1.361-.928-5.217-6.182-5.217-6.182"/><path class="h" d="M155.657,221.389c.145-1.744,5.044-6.192,5.044-6.192"/><path class="h" d="M157.04,210c.407-1.338-1.673-7.929-1.673-7.929"/><path class="h" d="M160.187,198.54c.793-2.115,7.487-3.665,7.487-3.665"/><path class="x" d="M171.518,223.9s-1.545,8.923-5.254,12.481-8.238-2.315-7.982-5.406S171.518,223.9,171.518,223.9Z"/><path class="x" d="M171.518,204.278s-1.545,8.923-5.254,12.48-8.578-2.211-7.263-5.02C160.7,208.106,171.518,204.278,171.518,204.278Z"/><path class="x" d="M169.487,173.544s1.553,7.8-.441,12.542-7.437,2.173-7.5-.928C161.474,181.1,169.487,173.544,169.487,173.544Z"/><path class="x" d="M180.493,193.555s-5.96,5.274-11.055,5.938-5.625-5.328-2.976-6.941C169.93,190.44,180.493,193.555,180.493,193.555Z"/><path class="x" d="M138.8,214.765s8.923,1.546,12.48,5.255-2.315,8.237-5.4,7.982S138.8,214.765,138.8,214.765Z"/><path class="x" d="M144.1,190.983s4.315-1.266,12.012,5.917c3.846,3.59-2.971,8-5.218,5.361A37.432,37.432,0,0,1,144.1,190.983Z"/><path class="h" d="M160.886,263.058c7.967-27.731,26.8-37.278,26.8-37.278"/><path class="h" d="M169.591,249.293c-1.463.7-4.371,2.24-4.371,2.24"/><path class="h" d="M167.863,246.5a30.543,30.543,0,0,1-.739-5.053"/><path class="h" d="M171.648,240.693c.658-.887,4.767-1.641,4.767-1.641"/><path class="h" d="M176.18,235.048c.664-.582,1.744-4.809,1.744-4.809"/><path class="h" d="M181.686,229.948c1.129-.87,5.235.527,5.235.527"/><path class="f" d="M182.825,246.5s-4.934,5.535-9.065,6.4-4.765-5.189-3.251-7.227S182.825,246.5,182.825,246.5Z"/><path class="f" d="M189.236,236.251s-4.845,5.445-8.891,6.3-4.926-5.154-2.835-6.516C180.214,234.276,189.236,236.251,189.236,236.251Z"/><path class="f" d="M198.04,215.2s-2.527,7.6-6.089,10.718-6.138-1.892-4.749-4.627C189.021,217.706,198.04,215.2,198.04,215.2Z"/><path class="f" d="M198.658,235.033s-7.219,1.368-11.441-.313-1.586-6.349,1.252-6.416C192.184,228.218,198.658,235.033,198.658,235.033Z"/><path class="f" d="M164.782,228.826s4.942,4.529,5.6,8.446-4.942,4.721-6.772,3.342S164.782,228.826,164.782,228.826Z"/><path class="f" d="M174.262,216.92s3.709,1.069,6.2,9.619c1.245,4.274-5.667,4.28-6.159,1.4A30.736,30.736,0,0,1,174.262,216.92Z"/><path class="h" d="M160.7,263.8c-10.864-37.814-36.546-50.833-36.546-50.833"/><path class="h" d="M148.831,245.034c2,.956,5.96,3.053,5.96,3.053"/><path class="h" d="M151.186,241.227c.574-1.3,1.009-6.89,1.009-6.89"/><path class="h" d="M146.026,233.306c-.9-1.209-6.5-2.238-6.5-2.238"/><path class="h" d="M139.846,225.608c-.906-.793-2.378-6.558-2.378-6.558"/><path class="h" d="M132.338,218.654c-1.54-1.187-7.139.719-7.139.719"/><path class="e" d="M131.937,241.509s6.353,7.126,11.672,8.237,6.134-6.68,4.185-9.305S131.937,241.509,131.937,241.509Z"/><path class="e" d="M123.1,227.534s6.252,7.027,11.473,8.134,6.357-6.651,3.658-8.409C134.745,224.986,123.1,227.534,123.1,227.534Z"/><path class="e" d="M111.684,200.425s3.07,9.236,7.4,13.023,7.458-2.3,5.77-5.622C122.641,203.474,111.684,200.425,111.684,200.425Z"/><path class="e" d="M109.944,225.326s9.106,1.726,14.432-.4,2-8.009-1.579-8.092C118.11,216.729,109.944,225.326,109.944,225.326Z"/><path class="e" d="M155.389,217.124s-6.739,6.176-7.639,11.517,6.74,6.437,9.236,4.558S155.389,217.124,155.389,217.124Z"/><path class="e" d="M142.419,201.536s-4.987,1.437-8.335,12.932c-1.673,5.744,7.619,5.753,8.279,1.887A41.317,41.317,0,0,0,142.419,201.536Z"/><ellipse class="e" cx="17.222" cy="1.408" rx="17.222" ry="1.408" transform="translate(142.743 259.685)"/><ellipse class="e" cx="17.222" cy="1.408" rx="17.222" ry="1.408" transform="translate(142.743 263.663)"/><rect class="e" width="34.444" height="3.977" transform="translate(177.187 265.071) rotate(-180)"/><path class="e" d="M148.985,288.7h21.96l4.043-23.627H144.942Z"/><path class="g" d="M222.25,226.637c-2.28,7.708-13.427,8.55-17.363,7.386s-12.831-7.934-10.551-15.643,9.439-8.939,17.148-6.659S224.53,218.928,222.25,226.637Z"/><path class="g" d="M213.4,205.036a45.83,45.83,0,0,0-12.042,6.959s7.317.934,9.8,4.36C211.155,216.355,214.2,209.3,213.4,205.036Z"/><path class="g" d="M227.108,213.078a45.83,45.83,0,0,1-5.7,12.688s-1.673-7.184-5.335-9.305C216.076,216.461,222.79,212.719,227.108,213.078Z"/><rect class="g" width="31.086" height="7.464" rx="3.732" transform="translate(204.214 281.107)"/><rect class="g" width="12.956" height="7.464" rx="3.732" transform="translate(191.071 281.107)"/><path class="y" d="M208.374,232.643c-24.142,22.319-4.362,31.02-7.247,51.1"/><rect class="g" width="12.956" height="7.464" rx="3.732" transform="translate(175.428 234.634) rotate(49.614)"/><path class="y" d="M213.239,250.226c-23.434,17.052-15.473-2.567-35.553-5.451"/><path class="z" d="M232.795,284.543c20.344-25.828-.856-27.816-.856-51.6,0-11.889,17.239-15.815,22.149-7.082"/><path class="g" d="M218.009,284.839s-12.97-4.742-12.97-14.211c0-7.729,1.236-7.57,1.236-7.57s-10.986-2.678-10.986-12.645c0-7.775,7.472-15.73,10.677-17.77h6.387c0,22.319,24.2-.712,22.947,52.2Z"/><path class="e" d="M2.349,0h0A2.349,2.349,0,0,1,4.7,2.349V53.992a0,0,0,0,1,0,0H0a0,0,0,0,1,0,0V2.349A2.349,2.349,0,0,1,2.349,0Z" transform="translate(94.676 42.261)"/><path class="e" d="M2.349,0h0A2.349,2.349,0,0,1,4.7,2.349V53.992a0,0,0,0,1,0,0H0a0,0,0,0,1,0,0V2.349A2.349,2.349,0,0,1,2.349,0Z" transform="translate(107.656 42.261)"/><rect class="x" width="8.283" height="49.974" transform="translate(99.374 46.279)"/><path class="g" d="M2.349,0h0A2.349,2.349,0,0,1,4.7,2.349V44.72a0,0,0,0,1,0,0H0a0,0,0,0,1,0,0V2.349A2.349,2.349,0,0,1,2.349,0Z" transform="translate(112.354 51.533)"/><path class="g" d="M2.349,0h0A2.349,2.349,0,0,1,4.7,2.349V44.72a0,0,0,0,1,0,0H0a0,0,0,0,1,0,0V2.349A2.349,2.349,0,0,1,2.349,0Z" transform="translate(122.986 51.533)"/><rect class="x" width="5.973" height="41.393" transform="translate(117.053 54.861)"/><path class="f" d="M2,0H13.47a2,2,0,0,1,2,2V53.992a0,0,0,0,1,0,0H0a0,0,0,0,1,0,0V2A2,2,0,0,1,2,0Z" transform="translate(127.684 42.261)"/><rect class="e" width="15.47" height="53.992" rx="2" transform="translate(197.146 80.784) rotate(90)"/><rect class="i" width="4.698" height="48.276" rx="2.349" transform="translate(194.288 65.454) rotate(90)"/><rect class="i" width="4.698" height="48.276" rx="2.349" transform="translate(194.288 76.086) rotate(90)"/><rect class="x" width="5.973" height="41.393" transform="translate(190.846 70.152) rotate(90)"/><rect class="f" width="4.698" height="48.276" rx="2.349" transform="translate(194.288 50.125) rotate(90)"/><rect class="f" width="4.698" height="48.276" rx="2.349" transform="translate(194.288 60.756) rotate(90)"/><rect class="x" width="5.973" height="41.393" transform="translate(190.846 54.823) rotate(90)"/><rect class="e" width="15.47" height="53.992" rx="2" transform="translate(145.496 156.551) rotate(90)"/><rect class="f" width="7.735" height="59.895" rx="2" transform="translate(148.447 148.906) rotate(90)"/><rect class="g" width="11.813" height="46.225" rx="2" transform="translate(145.504 137.303) rotate(90)"/><rect class="f" width="4.698" height="48.276" rx="2.349" transform="translate(141.19 121.973) rotate(90)"/><rect class="f" width="4.698" height="48.276" rx="2.349" transform="translate(141.19 132.605) rotate(90)"/><rect class="x" width="5.973" height="41.393" transform="translate(137.749 126.671) rotate(90)"/><rect class="g" width="4.698" height="48.276" rx="2.349" transform="translate(227.262 90.596) rotate(155.219)"/><rect class="g" width="4.698" height="48.276" rx="2.349" transform="translate(217.609 95.052) rotate(155.219)"/><rect class="x" width="5.973" height="41.393" transform="translate(221.554 89.441) rotate(155.219)"/></g></svg>