<svg width="198" height="51" viewBox="0 0 198 51" fill="none" xmlns="http://www.w3.org/2000/svg" style="">
<mask id="path-1-outside-1" maskUnits="userSpaceOnUse" x="0.928009" y="0.511993" width="197" height="50" fill="black">
<path fill="white" width="197" height="50" d="M0.928009 0.511993 L197.928009 0.511993 L197.928009 50.511993 L0.928009 50.511993 Z" class="RkHkPvyL_0"></path>
<path d="M15.224 39.24C12.632 39.24 10.328 38.68 8.31201 37.56C6.32801 36.408 4.76001 34.824 3.60801 32.808C2.48801 30.792 1.92801 28.488 1.92801 25.896C1.92801 23.272 2.45601 20.968 3.51201 18.984C4.60001 16.968 6.08801 15.384 7.97601 14.232C9.86401 13.08 12.04 12.504 14.504 12.504C16.936 12.504 19.048 13.064 20.84 14.184C22.664 15.272 24.072 16.792 25.064 18.744C26.056 20.696 26.552 22.92 26.552 25.416C26.552 25.928 26.392 26.344 26.072 26.664C25.752 26.952 25.336 27.096 24.824 27.096H5.43201C5.62401 28.824 6.15201 30.36 7.01601 31.704C7.88001 33.016 9.01601 34.056 10.424 34.824C11.832 35.56 13.432 35.928 15.224 35.928C16.376 35.928 17.528 35.736 18.68 35.352C19.864 34.936 20.808 34.424 21.512 33.816C21.864 33.528 22.264 33.384 22.712 33.384C23.16 33.352 23.544 33.464 23.864 33.72C24.28 34.104 24.488 34.52 24.488 34.968C24.52 35.416 24.344 35.8 23.96 36.12C22.904 37.016 21.56 37.768 19.928 38.376C18.296 38.952 16.728 39.24 15.224 39.24ZM14.504 15.816C12.04 15.816 10.008 16.584 8.40801 18.12C6.80801 19.624 5.84801 21.592 5.52801 24.024H23.096C22.84 21.592 21.944 19.624 20.408 18.12C18.904 16.584 16.936 15.816 14.504 15.816Z" class="RkHkPvyL_1"></path>
<path d="M32.1324 27.72C31.6204 27.72 31.1884 27.544 30.8364 27.192C30.4844 26.84 30.3084 26.408 30.3084 25.896C30.3084 25.352 30.4844 24.904 30.8364 24.552C31.1884 24.2 31.6204 24.024 32.1324 24.024H43.4124C43.9564 24.024 44.4044 24.2 44.7564 24.552C45.1084 24.904 45.2844 25.352 45.2844 25.896C45.2844 26.408 45.1084 26.84 44.7564 27.192C44.4044 27.544 43.9564 27.72 43.4124 27.72H32.1324Z" class="RkHkPvyL_2"></path>
<path d="M53.4264 39C52.8504 39 52.3864 38.84 52.0344 38.52C51.7144 38.168 51.5544 37.72 51.5544 37.176V14.616C51.5544 14.072 51.7144 13.624 52.0344 13.272C52.3864 12.92 52.8504 12.744 53.4264 12.744C53.9704 12.744 54.4024 12.92 54.7224 13.272C55.0744 13.624 55.2504 14.072 55.2504 14.616V15.672C56.1464 14.648 57.2024 13.864 58.4184 13.32C59.6344 12.744 60.9784 12.456 62.4504 12.456C64.2424 12.456 65.8264 12.856 67.2024 13.656C68.6104 14.456 69.7304 15.56 70.5624 16.968C71.4584 15.56 72.6584 14.456 74.1624 13.656C75.6664 12.856 77.3464 12.456 79.2024 12.456C81.0904 12.456 82.7544 12.904 84.1944 13.8C85.6664 14.696 86.8024 15.96 87.6024 17.592C88.4344 19.224 88.8504 21.144 88.8504 23.352V37.176C88.8504 37.72 88.6744 38.168 88.3224 38.52C88.0024 38.84 87.5704 39 87.0264 39C86.4824 39 86.0344 38.84 85.6824 38.52C85.3304 38.168 85.1544 37.72 85.1544 37.176V23.352C85.1544 21.08 84.5624 19.288 83.3784 17.976C82.1944 16.632 80.6744 15.96 78.8184 15.96C76.8344 15.96 75.2024 16.632 73.9224 17.976C72.6744 19.288 72.0664 21.048 72.0984 23.256V23.352V37.176C72.0984 37.72 71.9224 38.168 71.5704 38.52C71.2504 38.84 70.8184 39 70.2744 39C69.7304 39 69.2824 38.84 68.9304 38.52C68.5784 38.168 68.4024 37.72 68.4024 37.176V23.352C68.4024 21.08 67.8104 19.288 66.6264 17.976C65.4424 16.632 63.9224 15.96 62.0664 15.96C60.0824 15.96 58.4504 16.616 57.1704 17.928C55.8904 19.208 55.2504 20.888 55.2504 22.968V37.176C55.2504 37.72 55.0744 38.168 54.7224 38.52C54.4024 38.84 53.9704 39 53.4264 39Z" class="RkHkPvyL_3"></path>
<path d="M108.591 39.24C106.127 39.24 103.919 38.664 101.967 37.512C100.015 36.328 98.4631 34.728 97.3111 32.712C96.1911 30.696 95.6311 28.424 95.6311 25.896C95.6311 23.336 96.2071 21.048 97.3591 19.032C98.5431 17.016 100.143 15.432 102.159 14.28C104.175 13.096 106.447 12.504 108.975 12.504C111.503 12.504 113.759 13.096 115.743 14.28C117.759 15.432 119.343 17.016 120.495 19.032C121.679 21.048 122.287 23.336 122.319 25.896V37.176C122.319 37.72 122.143 38.168 121.791 38.52C121.439 38.84 120.991 39 120.447 39C119.903 39 119.455 38.84 119.103 38.52C118.751 38.168 118.575 37.72 118.575 37.176V34.248C117.487 35.784 116.079 37 114.351 37.896C112.623 38.792 110.703 39.24 108.591 39.24ZM108.975 35.88C110.831 35.88 112.479 35.448 113.919 34.584C115.391 33.72 116.543 32.536 117.375 31.032C118.239 29.496 118.671 27.784 118.671 25.896C118.671 23.976 118.239 22.264 117.375 20.76C116.543 19.256 115.391 18.072 113.919 17.208C112.479 16.312 110.831 15.864 108.975 15.864C107.151 15.864 105.503 16.312 104.031 17.208C102.559 18.072 101.391 19.256 100.527 20.76C99.6631 22.264 99.2311 23.976 99.2311 25.896C99.2311 27.784 99.6631 29.496 100.527 31.032C101.391 32.536 102.559 33.72 104.031 34.584C105.503 35.448 107.151 35.88 108.975 35.88Z" class="RkHkPvyL_4"></path>
<path d="M141.076 39.24C138.548 39.24 136.308 38.68 134.356 37.56C132.404 36.408 130.868 34.824 129.748 32.808C128.66 30.792 128.116 28.488 128.116 25.896C128.116 23.272 128.692 20.952 129.844 18.936C130.996 16.92 132.58 15.352 134.596 14.232C136.612 13.08 138.9 12.504 141.46 12.504C144.052 12.504 146.34 13.08 148.324 14.232C150.34 15.352 151.908 16.92 153.028 18.936C154.18 20.952 154.772 23.272 154.804 25.896V35.688C154.804 38.28 154.228 40.6 153.076 42.648C151.924 44.728 150.356 46.36 148.372 47.544C146.388 48.76 144.116 49.368 141.556 49.368C139.028 49.368 136.804 48.888 134.884 47.928C132.964 47 131.38 45.72 130.132 44.088C129.78 43.704 129.62 43.288 129.652 42.84C129.716 42.392 129.956 42.024 130.372 41.736C130.788 41.448 131.252 41.352 131.764 41.448C132.276 41.544 132.676 41.784 132.964 42.168C133.892 43.32 135.076 44.248 136.516 44.952C137.988 45.656 139.684 46.008 141.604 46.008C143.396 46.008 145.012 45.576 146.452 44.712C147.892 43.848 149.028 42.632 149.86 41.064C150.724 39.496 151.156 37.656 151.156 35.544V33.336C150.196 35.16 148.836 36.6 147.076 37.656C145.348 38.712 143.348 39.24 141.076 39.24ZM141.46 35.88C143.348 35.88 145.012 35.464 146.452 34.632C147.924 33.768 149.076 32.584 149.908 31.08C150.74 29.576 151.156 27.848 151.156 25.896C151.156 23.944 150.74 22.216 149.908 20.712C149.076 19.176 147.924 17.992 146.452 17.16C145.012 16.296 143.348 15.864 141.46 15.864C139.572 15.864 137.892 16.296 136.42 17.16C134.948 17.992 133.796 19.176 132.964 20.712C132.132 22.216 131.716 23.944 131.716 25.896C131.716 27.848 132.132 29.576 132.964 31.08C133.796 32.584 134.948 33.768 136.42 34.632C137.892 35.464 139.572 35.88 141.46 35.88Z" class="RkHkPvyL_5"></path>
<path d="M164.632 39C164.056 39 163.592 38.84 163.24 38.52C162.92 38.168 162.76 37.704 162.76 37.128V14.616C162.76 14.04 162.92 13.592 163.24 13.272C163.592 12.92 164.056 12.744 164.632 12.744C165.176 12.744 165.608 12.92 165.928 13.272C166.28 13.592 166.456 14.04 166.456 14.616V37.128C166.456 37.704 166.28 38.168 165.928 38.52C165.608 38.84 165.176 39 164.632 39ZM164.584 7.75199C163.88 7.75199 163.272 7.49599 162.76 6.98399C162.248 6.47199 161.992 5.84799 161.992 5.11199C161.992 4.31199 162.248 3.68799 162.76 3.23999C163.304 2.75999 163.928 2.51999 164.632 2.51999C165.304 2.51999 165.896 2.75999 166.408 3.23999C166.952 3.68799 167.224 4.31199 167.224 5.11199C167.224 5.84799 166.968 6.47199 166.456 6.98399C165.944 7.49599 165.32 7.75199 164.584 7.75199Z" class="RkHkPvyL_6"></path>
<path d="M177.691 39C177.147 39 176.699 38.84 176.347 38.52C176.027 38.168 175.867 37.72 175.867 37.176V3.33599C175.867 2.79199 176.027 2.35999 176.347 2.03999C176.699 1.68799 177.147 1.51199 177.691 1.51199C178.235 1.51199 178.667 1.68799 178.987 2.03999C179.339 2.35999 179.515 2.79199 179.515 3.33599V25.176L193.051 12.936C193.883 12.2 194.667 12.232 195.403 13.032C195.755 13.416 195.915 13.832 195.883 14.28C195.883 14.696 195.691 15.064 195.307 15.384L185.707 24.072L195.691 36.36C196.395 37.224 196.315 38.024 195.451 38.76C195.035 39.112 194.603 39.256 194.155 39.192C193.707 39.16 193.323 38.936 193.003 38.52L183.115 26.376L179.515 29.688V37.176C179.515 37.72 179.339 38.168 178.987 38.52C178.667 38.84 178.235 39 177.691 39Z" class="RkHkPvyL_7"></path>
</mask>
<path d="M15.224 39.24C12.632 39.24 10.328 38.68 8.31201 37.56C6.32801 36.408 4.76001 34.824 3.60801 32.808C2.48801 30.792 1.92801 28.488 1.92801 25.896C1.92801 23.272 2.45601 20.968 3.51201 18.984C4.60001 16.968 6.08801 15.384 7.97601 14.232C9.86401 13.08 12.04 12.504 14.504 12.504C16.936 12.504 19.048 13.064 20.84 14.184C22.664 15.272 24.072 16.792 25.064 18.744C26.056 20.696 26.552 22.92 26.552 25.416C26.552 25.928 26.392 26.344 26.072 26.664C25.752 26.952 25.336 27.096 24.824 27.096H5.43201C5.62401 28.824 6.15201 30.36 7.01601 31.704C7.88001 33.016 9.01601 34.056 10.424 34.824C11.832 35.56 13.432 35.928 15.224 35.928C16.376 35.928 17.528 35.736 18.68 35.352C19.864 34.936 20.808 34.424 21.512 33.816C21.864 33.528 22.264 33.384 22.712 33.384C23.16 33.352 23.544 33.464 23.864 33.72C24.28 34.104 24.488 34.52 24.488 34.968C24.52 35.416 24.344 35.8 23.96 36.12C22.904 37.016 21.56 37.768 19.928 38.376C18.296 38.952 16.728 39.24 15.224 39.24ZM14.504 15.816C12.04 15.816 10.008 16.584 8.40801 18.12C6.80801 19.624 5.84801 21.592 5.52801 24.024H23.096C22.84 21.592 21.944 19.624 20.408 18.12C18.904 16.584 16.936 15.816 14.504 15.816Z" fill="#4CC8C0" class="RkHkPvyL_8"></path>
<path d="M32.1324 27.72C31.6204 27.72 31.1884 27.544 30.8364 27.192C30.4844 26.84 30.3084 26.408 30.3084 25.896C30.3084 25.352 30.4844 24.904 30.8364 24.552C31.1884 24.2 31.6204 24.024 32.1324 24.024H43.4124C43.9564 24.024 44.4044 24.2 44.7564 24.552C45.1084 24.904 45.2844 25.352 45.2844 25.896C45.2844 26.408 45.1084 26.84 44.7564 27.192C44.4044 27.544 43.9564 27.72 43.4124 27.72H32.1324Z" fill="#4CC8C0" class="RkHkPvyL_9"></path>
<path d="M53.4264 39C52.8504 39 52.3864 38.84 52.0344 38.52C51.7144 38.168 51.5544 37.72 51.5544 37.176V14.616C51.5544 14.072 51.7144 13.624 52.0344 13.272C52.3864 12.92 52.8504 12.744 53.4264 12.744C53.9704 12.744 54.4024 12.92 54.7224 13.272C55.0744 13.624 55.2504 14.072 55.2504 14.616V15.672C56.1464 14.648 57.2024 13.864 58.4184 13.32C59.6344 12.744 60.9784 12.456 62.4504 12.456C64.2424 12.456 65.8264 12.856 67.2024 13.656C68.6104 14.456 69.7304 15.56 70.5624 16.968C71.4584 15.56 72.6584 14.456 74.1624 13.656C75.6664 12.856 77.3464 12.456 79.2024 12.456C81.0904 12.456 82.7544 12.904 84.1944 13.8C85.6664 14.696 86.8024 15.96 87.6024 17.592C88.4344 19.224 88.8504 21.144 88.8504 23.352V37.176C88.8504 37.72 88.6744 38.168 88.3224 38.52C88.0024 38.84 87.5704 39 87.0264 39C86.4824 39 86.0344 38.84 85.6824 38.52C85.3304 38.168 85.1544 37.72 85.1544 37.176V23.352C85.1544 21.08 84.5624 19.288 83.3784 17.976C82.1944 16.632 80.6744 15.96 78.8184 15.96C76.8344 15.96 75.2024 16.632 73.9224 17.976C72.6744 19.288 72.0664 21.048 72.0984 23.256V23.352V37.176C72.0984 37.72 71.9224 38.168 71.5704 38.52C71.2504 38.84 70.8184 39 70.2744 39C69.7304 39 69.2824 38.84 68.9304 38.52C68.5784 38.168 68.4024 37.72 68.4024 37.176V23.352C68.4024 21.08 67.8104 19.288 66.6264 17.976C65.4424 16.632 63.9224 15.96 62.0664 15.96C60.0824 15.96 58.4504 16.616 57.1704 17.928C55.8904 19.208 55.2504 20.888 55.2504 22.968V37.176C55.2504 37.72 55.0744 38.168 54.7224 38.52C54.4024 38.84 53.9704 39 53.4264 39Z" fill="#4CC8C0" class="RkHkPvyL_10"></path>
<path d="M108.591 39.24C106.127 39.24 103.919 38.664 101.967 37.512C100.015 36.328 98.4631 34.728 97.3111 32.712C96.1911 30.696 95.6311 28.424 95.6311 25.896C95.6311 23.336 96.2071 21.048 97.3591 19.032C98.5431 17.016 100.143 15.432 102.159 14.28C104.175 13.096 106.447 12.504 108.975 12.504C111.503 12.504 113.759 13.096 115.743 14.28C117.759 15.432 119.343 17.016 120.495 19.032C121.679 21.048 122.287 23.336 122.319 25.896V37.176C122.319 37.72 122.143 38.168 121.791 38.52C121.439 38.84 120.991 39 120.447 39C119.903 39 119.455 38.84 119.103 38.52C118.751 38.168 118.575 37.72 118.575 37.176V34.248C117.487 35.784 116.079 37 114.351 37.896C112.623 38.792 110.703 39.24 108.591 39.24ZM108.975 35.88C110.831 35.88 112.479 35.448 113.919 34.584C115.391 33.72 116.543 32.536 117.375 31.032C118.239 29.496 118.671 27.784 118.671 25.896C118.671 23.976 118.239 22.264 117.375 20.76C116.543 19.256 115.391 18.072 113.919 17.208C112.479 16.312 110.831 15.864 108.975 15.864C107.151 15.864 105.503 16.312 104.031 17.208C102.559 18.072 101.391 19.256 100.527 20.76C99.6631 22.264 99.2311 23.976 99.2311 25.896C99.2311 27.784 99.6631 29.496 100.527 31.032C101.391 32.536 102.559 33.72 104.031 34.584C105.503 35.448 107.151 35.88 108.975 35.88Z" fill="#4CC8C0" class="RkHkPvyL_11"></path>
<path d="M141.076 39.24C138.548 39.24 136.308 38.68 134.356 37.56C132.404 36.408 130.868 34.824 129.748 32.808C128.66 30.792 128.116 28.488 128.116 25.896C128.116 23.272 128.692 20.952 129.844 18.936C130.996 16.92 132.58 15.352 134.596 14.232C136.612 13.08 138.9 12.504 141.46 12.504C144.052 12.504 146.34 13.08 148.324 14.232C150.34 15.352 151.908 16.92 153.028 18.936C154.18 20.952 154.772 23.272 154.804 25.896V35.688C154.804 38.28 154.228 40.6 153.076 42.648C151.924 44.728 150.356 46.36 148.372 47.544C146.388 48.76 144.116 49.368 141.556 49.368C139.028 49.368 136.804 48.888 134.884 47.928C132.964 47 131.38 45.72 130.132 44.088C129.78 43.704 129.62 43.288 129.652 42.84C129.716 42.392 129.956 42.024 130.372 41.736C130.788 41.448 131.252 41.352 131.764 41.448C132.276 41.544 132.676 41.784 132.964 42.168C133.892 43.32 135.076 44.248 136.516 44.952C137.988 45.656 139.684 46.008 141.604 46.008C143.396 46.008 145.012 45.576 146.452 44.712C147.892 43.848 149.028 42.632 149.86 41.064C150.724 39.496 151.156 37.656 151.156 35.544V33.336C150.196 35.16 148.836 36.6 147.076 37.656C145.348 38.712 143.348 39.24 141.076 39.24ZM141.46 35.88C143.348 35.88 145.012 35.464 146.452 34.632C147.924 33.768 149.076 32.584 149.908 31.08C150.74 29.576 151.156 27.848 151.156 25.896C151.156 23.944 150.74 22.216 149.908 20.712C149.076 19.176 147.924 17.992 146.452 17.16C145.012 16.296 143.348 15.864 141.46 15.864C139.572 15.864 137.892 16.296 136.42 17.16C134.948 17.992 133.796 19.176 132.964 20.712C132.132 22.216 131.716 23.944 131.716 25.896C131.716 27.848 132.132 29.576 132.964 31.08C133.796 32.584 134.948 33.768 136.42 34.632C137.892 35.464 139.572 35.88 141.46 35.88Z" fill="#4CC8C0" class="RkHkPvyL_12"></path>
<path d="M164.632 39C164.056 39 163.592 38.84 163.24 38.52C162.92 38.168 162.76 37.704 162.76 37.128V14.616C162.76 14.04 162.92 13.592 163.24 13.272C163.592 12.92 164.056 12.744 164.632 12.744C165.176 12.744 165.608 12.92 165.928 13.272C166.28 13.592 166.456 14.04 166.456 14.616V37.128C166.456 37.704 166.28 38.168 165.928 38.52C165.608 38.84 165.176 39 164.632 39ZM164.584 7.75199C163.88 7.75199 163.272 7.49599 162.76 6.98399C162.248 6.47199 161.992 5.84799 161.992 5.11199C161.992 4.31199 162.248 3.68799 162.76 3.23999C163.304 2.75999 163.928 2.51999 164.632 2.51999C165.304 2.51999 165.896 2.75999 166.408 3.23999C166.952 3.68799 167.224 4.31199 167.224 5.11199C167.224 5.84799 166.968 6.47199 166.456 6.98399C165.944 7.49599 165.32 7.75199 164.584 7.75199Z" fill="#4CC8C0" class="RkHkPvyL_13"></path>
<path d="M177.691 39C177.147 39 176.699 38.84 176.347 38.52C176.027 38.168 175.867 37.72 175.867 37.176V3.33599C175.867 2.79199 176.027 2.35999 176.347 2.03999C176.699 1.68799 177.147 1.51199 177.691 1.51199C178.235 1.51199 178.667 1.68799 178.987 2.03999C179.339 2.35999 179.515 2.79199 179.515 3.33599V25.176L193.051 12.936C193.883 12.2 194.667 12.232 195.403 13.032C195.755 13.416 195.915 13.832 195.883 14.28C195.883 14.696 195.691 15.064 195.307 15.384L185.707 24.072L195.691 36.36C196.395 37.224 196.315 38.024 195.451 38.76C195.035 39.112 194.603 39.256 194.155 39.192C193.707 39.16 193.323 38.936 193.003 38.52L183.115 26.376L179.515 29.688V37.176C179.515 37.72 179.339 38.168 178.987 38.52C178.667 38.84 178.235 39 177.691 39Z" fill="#4CC8C0" class="RkHkPvyL_14"></path>
<path d="M15.224 39.24C12.632 39.24 10.328 38.68 8.31201 37.56C6.32801 36.408 4.76001 34.824 3.60801 32.808C2.48801 30.792 1.92801 28.488 1.92801 25.896C1.92801 23.272 2.45601 20.968 3.51201 18.984C4.60001 16.968 6.08801 15.384 7.97601 14.232C9.86401 13.08 12.04 12.504 14.504 12.504C16.936 12.504 19.048 13.064 20.84 14.184C22.664 15.272 24.072 16.792 25.064 18.744C26.056 20.696 26.552 22.92 26.552 25.416C26.552 25.928 26.392 26.344 26.072 26.664C25.752 26.952 25.336 27.096 24.824 27.096H5.43201C5.62401 28.824 6.15201 30.36 7.01601 31.704C7.88001 33.016 9.01601 34.056 10.424 34.824C11.832 35.56 13.432 35.928 15.224 35.928C16.376 35.928 17.528 35.736 18.68 35.352C19.864 34.936 20.808 34.424 21.512 33.816C21.864 33.528 22.264 33.384 22.712 33.384C23.16 33.352 23.544 33.464 23.864 33.72C24.28 34.104 24.488 34.52 24.488 34.968C24.52 35.416 24.344 35.8 23.96 36.12C22.904 37.016 21.56 37.768 19.928 38.376C18.296 38.952 16.728 39.24 15.224 39.24ZM14.504 15.816C12.04 15.816 10.008 16.584 8.40801 18.12C6.80801 19.624 5.84801 21.592 5.52801 24.024H23.096C22.84 21.592 21.944 19.624 20.408 18.12C18.904 16.584 16.936 15.816 14.504 15.816Z" stroke="#4CC8C0" stroke-width="2" mask="url(#path-1-outside-1)" class="RkHkPvyL_15"></path>
<path d="M32.1324 27.72C31.6204 27.72 31.1884 27.544 30.8364 27.192C30.4844 26.84 30.3084 26.408 30.3084 25.896C30.3084 25.352 30.4844 24.904 30.8364 24.552C31.1884 24.2 31.6204 24.024 32.1324 24.024H43.4124C43.9564 24.024 44.4044 24.2 44.7564 24.552C45.1084 24.904 45.2844 25.352 45.2844 25.896C45.2844 26.408 45.1084 26.84 44.7564 27.192C44.4044 27.544 43.9564 27.72 43.4124 27.72H32.1324Z" stroke="#4CC8C0" stroke-width="2" mask="url(#path-1-outside-1)" class="RkHkPvyL_16"></path>
<path d="M53.4264 39C52.8504 39 52.3864 38.84 52.0344 38.52C51.7144 38.168 51.5544 37.72 51.5544 37.176V14.616C51.5544 14.072 51.7144 13.624 52.0344 13.272C52.3864 12.92 52.8504 12.744 53.4264 12.744C53.9704 12.744 54.4024 12.92 54.7224 13.272C55.0744 13.624 55.2504 14.072 55.2504 14.616V15.672C56.1464 14.648 57.2024 13.864 58.4184 13.32C59.6344 12.744 60.9784 12.456 62.4504 12.456C64.2424 12.456 65.8264 12.856 67.2024 13.656C68.6104 14.456 69.7304 15.56 70.5624 16.968C71.4584 15.56 72.6584 14.456 74.1624 13.656C75.6664 12.856 77.3464 12.456 79.2024 12.456C81.0904 12.456 82.7544 12.904 84.1944 13.8C85.6664 14.696 86.8024 15.96 87.6024 17.592C88.4344 19.224 88.8504 21.144 88.8504 23.352V37.176C88.8504 37.72 88.6744 38.168 88.3224 38.52C88.0024 38.84 87.5704 39 87.0264 39C86.4824 39 86.0344 38.84 85.6824 38.52C85.3304 38.168 85.1544 37.72 85.1544 37.176V23.352C85.1544 21.08 84.5624 19.288 83.3784 17.976C82.1944 16.632 80.6744 15.96 78.8184 15.96C76.8344 15.96 75.2024 16.632 73.9224 17.976C72.6744 19.288 72.0664 21.048 72.0984 23.256V23.352V37.176C72.0984 37.72 71.9224 38.168 71.5704 38.52C71.2504 38.84 70.8184 39 70.2744 39C69.7304 39 69.2824 38.84 68.9304 38.52C68.5784 38.168 68.4024 37.72 68.4024 37.176V23.352C68.4024 21.08 67.8104 19.288 66.6264 17.976C65.4424 16.632 63.9224 15.96 62.0664 15.96C60.0824 15.96 58.4504 16.616 57.1704 17.928C55.8904 19.208 55.2504 20.888 55.2504 22.968V37.176C55.2504 37.72 55.0744 38.168 54.7224 38.52C54.4024 38.84 53.9704 39 53.4264 39Z" stroke="#4CC8C0" stroke-width="2" mask="url(#path-1-outside-1)" class="RkHkPvyL_17"></path>
<path d="M108.591 39.24C106.127 39.24 103.919 38.664 101.967 37.512C100.015 36.328 98.4631 34.728 97.3111 32.712C96.1911 30.696 95.6311 28.424 95.6311 25.896C95.6311 23.336 96.2071 21.048 97.3591 19.032C98.5431 17.016 100.143 15.432 102.159 14.28C104.175 13.096 106.447 12.504 108.975 12.504C111.503 12.504 113.759 13.096 115.743 14.28C117.759 15.432 119.343 17.016 120.495 19.032C121.679 21.048 122.287 23.336 122.319 25.896V37.176C122.319 37.72 122.143 38.168 121.791 38.52C121.439 38.84 120.991 39 120.447 39C119.903 39 119.455 38.84 119.103 38.52C118.751 38.168 118.575 37.72 118.575 37.176V34.248C117.487 35.784 116.079 37 114.351 37.896C112.623 38.792 110.703 39.24 108.591 39.24ZM108.975 35.88C110.831 35.88 112.479 35.448 113.919 34.584C115.391 33.72 116.543 32.536 117.375 31.032C118.239 29.496 118.671 27.784 118.671 25.896C118.671 23.976 118.239 22.264 117.375 20.76C116.543 19.256 115.391 18.072 113.919 17.208C112.479 16.312 110.831 15.864 108.975 15.864C107.151 15.864 105.503 16.312 104.031 17.208C102.559 18.072 101.391 19.256 100.527 20.76C99.6631 22.264 99.2311 23.976 99.2311 25.896C99.2311 27.784 99.6631 29.496 100.527 31.032C101.391 32.536 102.559 33.72 104.031 34.584C105.503 35.448 107.151 35.88 108.975 35.88Z" stroke="#4CC8C0" stroke-width="2" mask="url(#path-1-outside-1)" class="RkHkPvyL_18"></path>
<path d="M141.076 39.24C138.548 39.24 136.308 38.68 134.356 37.56C132.404 36.408 130.868 34.824 129.748 32.808C128.66 30.792 128.116 28.488 128.116 25.896C128.116 23.272 128.692 20.952 129.844 18.936C130.996 16.92 132.58 15.352 134.596 14.232C136.612 13.08 138.9 12.504 141.46 12.504C144.052 12.504 146.34 13.08 148.324 14.232C150.34 15.352 151.908 16.92 153.028 18.936C154.18 20.952 154.772 23.272 154.804 25.896V35.688C154.804 38.28 154.228 40.6 153.076 42.648C151.924 44.728 150.356 46.36 148.372 47.544C146.388 48.76 144.116 49.368 141.556 49.368C139.028 49.368 136.804 48.888 134.884 47.928C132.964 47 131.38 45.72 130.132 44.088C129.78 43.704 129.62 43.288 129.652 42.84C129.716 42.392 129.956 42.024 130.372 41.736C130.788 41.448 131.252 41.352 131.764 41.448C132.276 41.544 132.676 41.784 132.964 42.168C133.892 43.32 135.076 44.248 136.516 44.952C137.988 45.656 139.684 46.008 141.604 46.008C143.396 46.008 145.012 45.576 146.452 44.712C147.892 43.848 149.028 42.632 149.86 41.064C150.724 39.496 151.156 37.656 151.156 35.544V33.336C150.196 35.16 148.836 36.6 147.076 37.656C145.348 38.712 143.348 39.24 141.076 39.24ZM141.46 35.88C143.348 35.88 145.012 35.464 146.452 34.632C147.924 33.768 149.076 32.584 149.908 31.08C150.74 29.576 151.156 27.848 151.156 25.896C151.156 23.944 150.74 22.216 149.908 20.712C149.076 19.176 147.924 17.992 146.452 17.16C145.012 16.296 143.348 15.864 141.46 15.864C139.572 15.864 137.892 16.296 136.42 17.16C134.948 17.992 133.796 19.176 132.964 20.712C132.132 22.216 131.716 23.944 131.716 25.896C131.716 27.848 132.132 29.576 132.964 31.08C133.796 32.584 134.948 33.768 136.42 34.632C137.892 35.464 139.572 35.88 141.46 35.88Z" stroke="#4CC8C0" stroke-width="2" mask="url(#path-1-outside-1)" class="RkHkPvyL_19"></path>
<path d="M164.632 39C164.056 39 163.592 38.84 163.24 38.52C162.92 38.168 162.76 37.704 162.76 37.128V14.616C162.76 14.04 162.92 13.592 163.24 13.272C163.592 12.92 164.056 12.744 164.632 12.744C165.176 12.744 165.608 12.92 165.928 13.272C166.28 13.592 166.456 14.04 166.456 14.616V37.128C166.456 37.704 166.28 38.168 165.928 38.52C165.608 38.84 165.176 39 164.632 39ZM164.584 7.75199C163.88 7.75199 163.272 7.49599 162.76 6.98399C162.248 6.47199 161.992 5.84799 161.992 5.11199C161.992 4.31199 162.248 3.68799 162.76 3.23999C163.304 2.75999 163.928 2.51999 164.632 2.51999C165.304 2.51999 165.896 2.75999 166.408 3.23999C166.952 3.68799 167.224 4.31199 167.224 5.11199C167.224 5.84799 166.968 6.47199 166.456 6.98399C165.944 7.49599 165.32 7.75199 164.584 7.75199Z" stroke="#4CC8C0" stroke-width="2" mask="url(#path-1-outside-1)" class="RkHkPvyL_20"></path>
<path d="M177.691 39C177.147 39 176.699 38.84 176.347 38.52C176.027 38.168 175.867 37.72 175.867 37.176V3.33599C175.867 2.79199 176.027 2.35999 176.347 2.03999C176.699 1.68799 177.147 1.51199 177.691 1.51199C178.235 1.51199 178.667 1.68799 178.987 2.03999C179.339 2.35999 179.515 2.79199 179.515 3.33599V25.176L193.051 12.936C193.883 12.2 194.667 12.232 195.403 13.032C195.755 13.416 195.915 13.832 195.883 14.28C195.883 14.696 195.691 15.064 195.307 15.384L185.707 24.072L195.691 36.36C196.395 37.224 196.315 38.024 195.451 38.76C195.035 39.112 194.603 39.256 194.155 39.192C193.707 39.16 193.323 38.936 193.003 38.52L183.115 26.376L179.515 29.688V37.176C179.515 37.72 179.339 38.168 178.987 38.52C178.667 38.84 178.235 39 177.691 39Z" stroke="#4CC8C0" stroke-width="2" mask="url(#path-1-outside-1)" class="RkHkPvyL_21"></path>
<style data-made-with="vivus-instant">.RkHkPvyL_0{stroke-dasharray:494 496;stroke-dashoffset:495;animation:RkHkPvyL_draw_0 5000ms ease-out 0ms infinite,RkHkPvyL_fade 5000ms linear 0ms infinite;}.RkHkPvyL_1{stroke-dasharray:164 166;stroke-dashoffset:165;animation:RkHkPvyL_draw_1 5000ms ease-out 0ms infinite,RkHkPvyL_fade 5000ms linear 0ms infinite;}.RkHkPvyL_2{stroke-dasharray:35 37;stroke-dashoffset:36;animation:RkHkPvyL_draw_2 5000ms ease-out 0ms infinite,RkHkPvyL_fade 5000ms linear 0ms infinite;}.RkHkPvyL_3{stroke-dasharray:206 208;stroke-dashoffset:207;animation:RkHkPvyL_draw_3 5000ms ease-out 0ms infinite,RkHkPvyL_fade 5000ms linear 0ms infinite;}.RkHkPvyL_4{stroke-dasharray:157 159;stroke-dashoffset:158;animation:RkHkPvyL_draw_4 5000ms ease-out 0ms infinite,RkHkPvyL_fade 5000ms linear 0ms infinite;}.RkHkPvyL_5{stroke-dasharray:216 218;stroke-dashoffset:217;animation:RkHkPvyL_draw_5 5000ms ease-out 0ms infinite,RkHkPvyL_fade 5000ms linear 0ms infinite;}.RkHkPvyL_6{stroke-dasharray:74 76;stroke-dashoffset:75;animation:RkHkPvyL_draw_6 5000ms ease-out 0ms infinite,RkHkPvyL_fade 5000ms linear 0ms infinite;}.RkHkPvyL_7{stroke-dasharray:154 156;stroke-dashoffset:155;animation:RkHkPvyL_draw_7 5000ms ease-out 0ms infinite,RkHkPvyL_fade 5000ms linear 0ms infinite;}.RkHkPvyL_8{stroke-dasharray:164 166;stroke-dashoffset:165;animation:RkHkPvyL_draw_8 5000ms ease-out 0ms infinite,RkHkPvyL_fade 5000ms linear 0ms infinite;}.RkHkPvyL_9{stroke-dasharray:35 37;stroke-dashoffset:36;animation:RkHkPvyL_draw_9 5000ms ease-out 0ms infinite,RkHkPvyL_fade 5000ms linear 0ms infinite;}.RkHkPvyL_10{stroke-dasharray:206 208;stroke-dashoffset:207;animation:RkHkPvyL_draw_10 5000ms ease-out 0ms infinite,RkHkPvyL_fade 5000ms linear 0ms infinite;}.RkHkPvyL_11{stroke-dasharray:157 159;stroke-dashoffset:158;animation:RkHkPvyL_draw_11 5000ms ease-out 0ms infinite,RkHkPvyL_fade 5000ms linear 0ms infinite;}.RkHkPvyL_12{stroke-dasharray:216 218;stroke-dashoffset:217;animation:RkHkPvyL_draw_12 5000ms ease-out 0ms infinite,RkHkPvyL_fade 5000ms linear 0ms infinite;}.RkHkPvyL_13{stroke-dasharray:74 76;stroke-dashoffset:75;animation:RkHkPvyL_draw_13 5000ms ease-out 0ms infinite,RkHkPvyL_fade 5000ms linear 0ms infinite;}.RkHkPvyL_14{stroke-dasharray:154 156;stroke-dashoffset:155;animation:RkHkPvyL_draw_14 5000ms ease-out 0ms infinite,RkHkPvyL_fade 5000ms linear 0ms infinite;}.RkHkPvyL_15{stroke-dasharray:164 166;stroke-dashoffset:165;animation:RkHkPvyL_draw_15 5000ms ease-out 0ms infinite,RkHkPvyL_fade 5000ms linear 0ms infinite;}.RkHkPvyL_16{stroke-dasharray:35 37;stroke-dashoffset:36;animation:RkHkPvyL_draw_16 5000ms ease-out 0ms infinite,RkHkPvyL_fade 5000ms linear 0ms infinite;}.RkHkPvyL_17{stroke-dasharray:206 208;stroke-dashoffset:207;animation:RkHkPvyL_draw_17 5000ms ease-out 0ms infinite,RkHkPvyL_fade 5000ms linear 0ms infinite;}.RkHkPvyL_18{stroke-dasharray:157 159;stroke-dashoffset:158;animation:RkHkPvyL_draw_18 5000ms ease-out 0ms infinite,RkHkPvyL_fade 5000ms linear 0ms infinite;}.RkHkPvyL_19{stroke-dasharray:216 218;stroke-dashoffset:217;animation:RkHkPvyL_draw_19 5000ms ease-out 0ms infinite,RkHkPvyL_fade 5000ms linear 0ms infinite;}.RkHkPvyL_20{stroke-dasharray:74 76;stroke-dashoffset:75;animation:RkHkPvyL_draw_20 5000ms ease-out 0ms infinite,RkHkPvyL_fade 5000ms linear 0ms infinite;}.RkHkPvyL_21{stroke-dasharray:154 156;stroke-dashoffset:155;animation:RkHkPvyL_draw_21 5000ms ease-out 0ms infinite,RkHkPvyL_fade 5000ms linear 0ms infinite;}@keyframes RkHkPvyL_draw{100%{stroke-dashoffset:0;}}@keyframes RkHkPvyL_fade{0%{stroke-opacity:1;}92%{stroke-opacity:1;}100%{stroke-opacity:0;}}@keyframes RkHkPvyL_draw_0{40%{stroke-dashoffset: 495}45.602716468590835%{ stroke-dashoffset: 0;}100%{ stroke-dashoffset: 0;}}@keyframes RkHkPvyL_draw_1{45.602716468590835%{stroke-dashoffset: 165}47.470288624787784%{ stroke-dashoffset: 0;}100%{ stroke-dashoffset: 0;}}@keyframes RkHkPvyL_draw_2{47.47028862478777%{stroke-dashoffset: 36}47.87775891341256%{ stroke-dashoffset: 0;}100%{ stroke-dashoffset: 0;}}@keyframes RkHkPvyL_draw_3{47.87775891341256%{stroke-dashoffset: 207}50.220713073005086%{ stroke-dashoffset: 0;}100%{ stroke-dashoffset: 0;}}@keyframes RkHkPvyL_draw_4{50.22071307300509%{stroke-dashoffset: 158}52.009054895302775%{ stroke-dashoffset: 0;}100%{ stroke-dashoffset: 0;}}@keyframes RkHkPvyL_draw_5{52.009054895302775%{stroke-dashoffset: 217}54.46519524617997%{ stroke-dashoffset: 0;}100%{ stroke-dashoffset: 0;}}@keyframes RkHkPvyL_draw_6{54.46519524617997%{stroke-dashoffset: 75}55.31409168081494%{ stroke-dashoffset: 0;}100%{ stroke-dashoffset: 0;}}@keyframes RkHkPvyL_draw_7{55.31409168081495%{stroke-dashoffset: 155}57.06847764572722%{ stroke-dashoffset: 0;}100%{ stroke-dashoffset: 0;}}@keyframes RkHkPvyL_draw_8{57.068477645727214%{stroke-dashoffset: 165}58.93604980192416%{ stroke-dashoffset: 0;}100%{ stroke-dashoffset: 0;}}@keyframes RkHkPvyL_draw_9{58.93604980192416%{stroke-dashoffset: 36}59.34352009054895%{ stroke-dashoffset: 0;}100%{ stroke-dashoffset: 0;}}@keyframes RkHkPvyL_draw_10{59.34352009054895%{stroke-dashoffset: 207}61.68647425014149%{ stroke-dashoffset: 0;}100%{ stroke-dashoffset: 0;}}@keyframes RkHkPvyL_draw_11{61.68647425014149%{stroke-dashoffset: 158}63.47481607243917%{ stroke-dashoffset: 0;}100%{ stroke-dashoffset: 0;}}@keyframes RkHkPvyL_draw_12{63.47481607243917%{stroke-dashoffset: 217}65.93095642331636%{ stroke-dashoffset: 0;}100%{ stroke-dashoffset: 0;}}@keyframes RkHkPvyL_draw_13{65.93095642331635%{stroke-dashoffset: 75}66.77985285795131%{ stroke-dashoffset: 0;}100%{ stroke-dashoffset: 0;}}@keyframes RkHkPvyL_draw_14{66.77985285795133%{stroke-dashoffset: 155}68.53423882286361%{ stroke-dashoffset: 0;}100%{ stroke-dashoffset: 0;}}@keyframes RkHkPvyL_draw_15{68.53423882286361%{stroke-dashoffset: 165}70.40181097906056%{ stroke-dashoffset: 0;}100%{ stroke-dashoffset: 0;}}@keyframes RkHkPvyL_draw_16{70.40181097906056%{stroke-dashoffset: 36}70.80928126768534%{ stroke-dashoffset: 0;}100%{ stroke-dashoffset: 0;}}@keyframes RkHkPvyL_draw_17{70.80928126768534%{stroke-dashoffset: 207}73.15223542727787%{ stroke-dashoffset: 0;}100%{ stroke-dashoffset: 0;}}@keyframes RkHkPvyL_draw_18{73.15223542727787%{stroke-dashoffset: 158}74.94057724957555%{ stroke-dashoffset: 0;}100%{ stroke-dashoffset: 0;}}@keyframes RkHkPvyL_draw_19{74.94057724957554%{stroke-dashoffset: 217}77.39671760045273%{ stroke-dashoffset: 0;}100%{ stroke-dashoffset: 0;}}@keyframes RkHkPvyL_draw_20{77.39671760045275%{stroke-dashoffset: 75}78.24561403508771%{ stroke-dashoffset: 0;}100%{ stroke-dashoffset: 0;}}@keyframes RkHkPvyL_draw_21{78.24561403508771%{stroke-dashoffset: 155}80%{ stroke-dashoffset: 0;}100%{ stroke-dashoffset: 0;}}</style></svg>
